<svg width="20" height="20" viewBox="0 0 20 20" fill="none" xmlns="http://www.w3.org/2000/svg">
<g id="do-filter-circle">
<path id="Vector" d="M10 1.875C5.51992 1.875 1.875 5.51992 1.875 10C1.875 14.4801 5.51992 18.125 10 18.125C14.4801 18.125 18.125 14.4801 18.125 10C18.125 5.51992 14.4801 1.875 10 1.875ZM11.25 13.75H8.75C8.58424 13.75 8.42527 13.6842 8.30806 13.5669C8.19085 13.4497 8.125 13.2908 8.125 13.125C8.125 12.9592 8.19085 12.8003 8.30806 12.6831C8.42527 12.5658 8.58424 12.5 8.75 12.5H11.25C11.4158 12.5 11.5747 12.5658 11.6919 12.6831C11.8092 12.8003 11.875 12.9592 11.875 13.125C11.875 13.2908 11.8092 13.4497 11.6919 13.5669C11.5747 13.6842 11.4158 13.75 11.25 13.75ZM13.125 11.25H6.875C6.70924 11.25 6.55027 11.1842 6.43306 11.0669C6.31585 10.9497 6.25 10.7908 6.25 10.625C6.25 10.4592 6.31585 10.3003 6.43306 10.1831C6.55027 10.0658 6.70924 10 6.875 10H13.125C13.2908 10 13.4497 10.0658 13.5669 10.1831C13.6842 10.3003 13.75 10.4592 13.75 10.625C13.75 10.7908 13.6842 10.9497 13.5669 11.0669C13.4497 11.1842 13.2908 11.25 13.125 11.25ZM14.375 8.75H5.625C5.45924 8.75 5.30027 8.68415 5.18306 8.56694C5.06585 8.44973 5 8.29076 5 8.125C5 7.95924 5.06585 7.80027 5.18306 7.68306C5.30027 7.56585 5.45924 7.5 5.625 7.5H14.375C14.5408 7.5 14.6997 7.56585 14.8169 7.68306C14.9342 7.80027 15 7.95924 15 8.125C15 8.29076 14.9342 8.44973 14.8169 8.56694C14.6997 8.68415 14.5408 8.75 14.375 8.75Z" fill="#9482FF"/>
</g>
</svg>
