<svg width="16" height="16" viewBox="0 0 16 16" fill="none" xmlns="http://www.w3.org/2000/svg">
<path d="M8.40593 10.4879C8.27406 10.4977 8.14093 10.5026 8.00656 10.5026C7.84312 10.5026 7.68156 10.4951 7.52187 10.4811C6.73189 10.411 5.96638 10.1711 5.27776 9.77767C4.58914 9.38425 3.99369 8.84665 3.53218 8.20168C3.52002 8.18435 3.50366 8.17038 3.48463 8.16109C3.4656 8.15181 3.44452 8.14751 3.42337 8.1486C3.40222 8.1497 3.3817 8.15615 3.36372 8.16734C3.34575 8.17854 3.33092 8.19412 3.32061 8.21262L1.07061 12.2564C0.984988 12.4126 0.97155 12.6001 1.06186 12.7526C1.10888 12.8282 1.17437 12.8906 1.25217 12.9339C1.32997 12.9772 1.41751 13 1.50655 13.0001H3.94405C4.02896 12.997 4.11317 13.0166 4.18799 13.0568C4.26281 13.0971 4.32553 13.1566 4.36968 13.2292L5.5778 15.2501C5.62201 15.3251 5.68475 15.3875 5.75999 15.4313C5.83523 15.475 5.92045 15.4987 6.00749 15.5001C6.19312 15.4898 6.3853 15.3692 6.46249 15.2001L8.52843 10.6642C8.53735 10.6445 8.54101 10.6228 8.53904 10.6013C8.53707 10.5797 8.52954 10.5591 8.5172 10.5413C8.50485 10.5235 8.48811 10.5093 8.46861 10.4999C8.44911 10.4906 8.42751 10.4864 8.40593 10.4879Z" fill="#9482FF"/>
<path d="M14.9259 12.2462L12.6906 8.20961C12.6803 8.19129 12.6655 8.17588 12.6477 8.16479C12.6298 8.1537 12.6094 8.1473 12.5884 8.14617C12.5674 8.14505 12.5465 8.14925 12.5275 8.15837C12.5086 8.16749 12.4922 8.18125 12.48 8.19836C11.8653 9.05965 11.0158 9.72594 10.0328 10.1177C9.91213 10.1653 9.8145 10.2577 9.76032 10.3755L8.60845 12.9099C8.59362 12.9423 8.58594 12.9775 8.58594 13.013C8.58594 13.0486 8.59362 13.0838 8.60845 13.1162L9.55438 15.1971C9.63095 15.3662 9.82282 15.4896 10.0081 15.4999C10.0952 15.4978 10.1803 15.4733 10.2553 15.4289C10.3303 15.3845 10.3926 15.3215 10.4363 15.2462L11.6403 13.228C11.7306 13.0765 11.8944 12.999 12.0709 12.9999H14.5325C14.7409 12.9999 14.8988 12.8912 14.97 12.6874C14.995 12.6151 15.0041 12.5381 14.9965 12.462C14.9889 12.3858 14.9648 12.3121 14.9259 12.2462Z" fill="#9482FF"/>
<path d="M8.00813 6.5C8.83672 6.5 9.50844 5.82843 9.50844 5C9.50844 4.17157 8.83672 3.5 8.00813 3.5C7.17953 3.5 6.50781 4.17157 6.50781 5C6.50781 5.82843 7.17953 6.5 8.00813 6.5Z" fill="#9482FF"/>
<path d="M8.00781 0.5C5.52594 0.5 3.50781 2.51844 3.50781 5C3.50781 7.48156 5.52687 9.5 8.00781 9.5C10.4887 9.5 12.5078 7.48125 12.5078 5C12.5078 2.51875 10.4894 0.5 8.00781 0.5ZM8.00781 7.5C7.51336 7.5 7.03001 7.35338 6.61889 7.07867C6.20776 6.80397 5.88733 6.41352 5.69811 5.95671C5.50889 5.49989 5.45939 4.99723 5.55585 4.51227C5.65231 4.02732 5.89041 3.58186 6.24004 3.23223C6.58967 2.8826 7.03513 2.6445 7.52008 2.54804C8.00504 2.45157 8.5077 2.50108 8.96452 2.6903C9.42133 2.87952 9.81178 3.19995 10.0865 3.61107C10.3612 4.0222 10.5078 4.50555 10.5078 5C10.507 5.66279 10.2433 6.29819 9.77466 6.76685C9.306 7.23552 8.6706 7.49917 8.00781 7.5Z" fill="#9482FF"/>
</svg>
