<svg width="250" height="150" viewBox="0 0 250 150" fill="none" xmlns="http://www.w3.org/2000/svg">
<rect width="250" height="150" fill="white"/>
<g clip-path="url(#clip0_660_7231)">
<path d="M33.8325 31C33.446 31 33.0752 31.1536 32.8019 31.4269C32.5286 31.7002 32.375 32.071 32.375 32.4575C32.375 32.8441 32.5286 33.2148 32.8019 33.4881C33.0752 33.7615 33.446 33.915 33.8325 33.915H63.399C63.7856 33.915 64.1563 33.7615 64.4296 33.4881C64.703 33.2148 64.8565 32.8441 64.8565 32.4575C64.8565 32.071 64.703 31.7002 64.4296 31.4269C64.1563 31.1536 63.7856 31 63.399 31H33.8325Z" fill="#7984A8"/>
<path d="M33.8321 39.5869C33.446 39.5875 33.0758 39.7414 32.803 40.0147C32.5302 40.2879 32.377 40.6583 32.377 41.0444C32.377 41.4306 32.5302 41.801 32.803 42.0742C33.0758 42.3475 33.446 42.5013 33.8321 42.502H63.3986C63.7847 42.5013 64.1548 42.3475 64.4277 42.0742C64.7005 41.801 64.8537 41.4306 64.8537 41.0444C64.8537 40.6583 64.7005 40.2879 64.4277 40.0147C64.1548 39.7414 63.7847 39.5875 63.3986 39.5869H33.8321Z" fill="#7984A8"/>
<path d="M48.6156 66.822C46.8011 66.822 45.0274 66.2839 43.5187 65.2759C42.01 64.2678 40.8342 62.835 40.1398 61.1587C39.4454 59.4824 39.2637 57.6378 39.6177 55.8582C39.9716 54.0786 40.8453 52.4439 42.1283 51.1608C43.4113 49.8778 45.0459 49.004 46.8255 48.65C48.6051 48.2959 50.4497 48.4776 52.1261 49.1719C53.8024 49.8662 55.2353 51.042 56.2434 52.5506C57.2515 54.0592 57.7896 55.8329 57.7897 57.6474C57.787 60.0797 56.8196 62.4117 55.0997 64.1316C53.3798 65.8516 51.0479 66.8191 48.6156 66.822Z" fill="#E4E4E4"/>
<path d="M186.602 31C186.215 31 185.845 31.1536 185.571 31.4269C185.298 31.7002 185.145 32.071 185.145 32.4575C185.145 32.8441 185.298 33.2148 185.571 33.4881C185.845 33.7615 186.215 33.915 186.602 33.915H216.169C216.555 33.915 216.926 33.7615 217.199 33.4881C217.472 33.2148 217.626 32.8441 217.626 32.4575C217.626 32.071 217.472 31.7002 217.199 31.4269C216.926 31.1536 216.555 31 216.169 31H186.602Z" fill="#7984A8"/>
<path d="M186.602 39.5869C186.216 39.5875 185.845 39.7414 185.573 40.0147C185.3 40.2879 185.146 40.6583 185.146 41.0444C185.146 41.4306 185.3 41.801 185.573 42.0742C185.845 42.3475 186.216 42.5013 186.602 42.502H216.168C216.554 42.5013 216.924 42.3475 217.197 42.0742C217.47 41.801 217.623 41.4306 217.623 41.0444C217.623 40.6583 217.47 40.2879 217.197 40.0147C216.924 39.7414 216.554 39.5875 216.168 39.5869H186.602Z" fill="#7984A8"/>
<path d="M201.385 66.822C199.571 66.822 197.797 66.2839 196.288 65.2759C194.78 64.2678 193.604 62.835 192.909 61.1587C192.215 59.4824 192.033 57.6378 192.387 55.8582C192.741 54.0786 193.615 52.4439 194.898 51.1608C196.181 49.8778 197.815 49.004 199.595 48.65C201.375 48.2959 203.219 48.4776 204.896 49.1719C206.572 49.8662 208.005 51.042 209.013 52.5506C210.021 54.0592 210.559 55.8329 210.559 57.6474C210.557 60.0797 209.589 62.4117 207.869 64.1316C206.149 65.8516 203.817 66.8191 201.385 66.822Z" fill="#E4E4E4"/>
<path d="M88.6786 88.0973C89.3339 86.7157 86.2973 83.9036 81.8964 81.8162C77.4954 79.7289 73.3964 79.1568 72.7412 80.5384C72.0859 81.92 75.1224 84.7321 79.5234 86.8195C83.9244 88.9068 88.0233 89.4789 88.6786 88.0973Z" fill="#493B99"/>
<path d="M124.999 102.327C126.172 101.346 124.587 97.5222 121.46 93.7875C118.333 90.0528 114.848 87.821 113.676 88.8027C112.503 89.7843 114.088 93.6076 117.215 97.3423C120.341 101.077 123.827 103.309 124.999 102.327Z" fill="#493B99"/>
<path d="M100.577 110.141C110.318 110.141 118.216 102.244 118.216 92.5023C118.216 82.7606 110.318 74.8633 100.577 74.8633C90.8348 74.8633 82.9375 82.7606 82.9375 92.5023C82.9375 102.244 90.8348 110.141 100.577 110.141Z" fill="#493B99"/>
<path d="M108.042 106.346H102.684V115.947H108.042V106.346Z" fill="#493B99"/>
<path d="M97.3255 106.346H91.9668V115.947H97.3255V106.346Z" fill="#493B99"/>
<path d="M103.577 117.733C106.043 117.733 108.043 116.983 108.043 116.058C108.043 115.134 106.043 114.384 103.577 114.384C101.111 114.384 99.1113 115.134 99.1113 116.058C99.1113 116.983 101.111 117.733 103.577 117.733Z" fill="#493B99"/>
<path d="M92.8601 117.509C95.3264 117.509 97.3257 116.76 97.3257 115.835C97.3257 114.91 95.3264 114.16 92.8601 114.16C90.3938 114.16 88.3945 114.91 88.3945 115.835C88.3945 116.76 90.3938 117.509 92.8601 117.509Z" fill="#493B99"/>
<path d="M95.0385 70.3292C96.6135 63.9862 103.566 60.2535 110.567 61.992C117.568 63.7304 121.967 70.2818 120.392 76.6248C118.817 82.9678 113.592 82.9883 106.591 81.2498C99.5893 79.5113 93.4635 76.6723 95.0385 70.3292Z" fill="#AFA1FF"/>
<path d="M97.9395 94.6611C101.187 94.6611 103.82 92.0282 103.82 88.7803C103.82 85.5324 101.187 82.8994 97.9395 82.8994C94.6915 82.8994 92.0586 85.5324 92.0586 88.7803C92.0586 92.0282 94.6915 94.6611 97.9395 94.6611Z" fill="white"/>
<path d="M95.5228 88.6325C96.6054 88.6325 97.4831 87.7548 97.4831 86.6722C97.4831 85.5896 96.6054 84.7119 95.5228 84.7119C94.4401 84.7119 93.5625 85.5896 93.5625 86.6722C93.5625 87.7548 94.4401 88.6325 95.5228 88.6325Z" fill="#7984A8"/>
<path d="M101.629 101.032C101.815 102.055 101.586 103.109 100.995 103.964C100.403 104.818 99.4964 105.403 98.4739 105.589C97.4514 105.775 96.3969 105.547 95.5421 104.956C94.6872 104.365 94.102 103.459 93.9151 102.437L93.9137 102.429C93.528 100.299 95.1754 99.5446 97.306 99.1589C99.4366 98.7732 101.244 98.9019 101.629 101.032Z" fill="white"/>
<path d="M170.476 86.8195C174.877 84.7322 177.914 81.9201 177.259 80.5384C176.603 79.1568 172.504 79.7289 168.103 81.8163C163.702 83.9036 160.666 86.7157 161.321 88.0973C161.977 89.4789 166.075 88.9068 170.476 86.8195Z" fill="#493B99"/>
<path d="M132.785 97.3424C135.911 93.6077 137.496 89.7843 136.323 88.8027C135.151 87.8211 131.666 90.0529 128.539 93.7875C125.412 97.5222 123.827 101.346 125 102.327C126.172 103.309 129.658 101.077 132.785 97.3424Z" fill="#493B99"/>
<path d="M149.422 110.141C159.164 110.141 167.061 102.244 167.061 92.5023C167.061 82.7606 159.164 74.8633 149.422 74.8633C139.68 74.8633 131.783 82.7606 131.783 92.5023C131.783 102.244 139.68 110.141 149.422 110.141Z" fill="#493B99"/>
<path d="M147.316 106.346H141.957V115.947H147.316V106.346Z" fill="#493B99"/>
<path d="M158.033 106.346H152.674V115.947H158.033V106.346Z" fill="#493B99"/>
<path d="M146.423 117.733C148.889 117.733 150.888 116.983 150.888 116.058C150.888 115.134 148.889 114.384 146.423 114.384C143.956 114.384 141.957 115.134 141.957 116.058C141.957 116.983 143.956 117.733 146.423 117.733Z" fill="#493B99"/>
<path d="M157.139 117.509C159.606 117.509 161.605 116.76 161.605 115.835C161.605 114.91 159.606 114.16 157.139 114.16C154.673 114.16 152.674 114.91 152.674 115.835C152.674 116.76 154.673 117.509 157.139 117.509Z" fill="#493B99"/>
<path d="M154.962 70.3292C153.387 63.9862 146.435 60.2535 139.434 61.992C132.432 63.7304 128.034 70.2818 129.609 76.6248C131.184 82.9678 136.409 82.9883 143.41 81.2498C150.412 79.5113 156.537 76.6723 154.962 70.3292Z" fill="#AFA1FF"/>
<path d="M152.061 94.6611C155.308 94.6611 157.941 92.0282 157.941 88.7803C157.941 85.5324 155.308 82.8994 152.061 82.8994C148.813 82.8994 146.18 85.5324 146.18 88.7803C146.18 92.0282 148.813 94.6611 152.061 94.6611Z" fill="white"/>
<path d="M154.478 88.6325C155.561 88.6325 156.438 87.7548 156.438 86.6722C156.438 85.5896 155.561 84.7119 154.478 84.7119C153.395 84.7119 152.518 85.5896 152.518 86.6722C152.518 87.7548 153.395 88.6325 154.478 88.6325Z" fill="#7984A8"/>
<path d="M148.371 101.032C148.186 102.055 148.414 103.109 149.006 103.964C149.598 104.818 150.505 105.403 151.527 105.589C152.549 105.775 153.604 105.547 154.459 104.956C155.314 104.365 155.899 103.459 156.086 102.437L156.087 102.429C156.473 100.299 154.826 99.5446 152.695 99.1589C150.564 98.7732 148.757 98.9019 148.371 101.032Z" fill="white"/>
</g>
<defs>
<clipPath id="clip0_660_7231">
<rect width="250" height="87.0165" fill="white" transform="translate(0 31)"/>
</clipPath>
</defs>
</svg>
