<svg width="562" height="389" viewBox="0 0 562 389" fill="none" xmlns="http://www.w3.org/2000/svg">
<path d="M346.702 189.87C357.953 189.87 367.073 180.75 367.073 169.499C367.073 158.248 357.953 149.127 346.702 149.127C335.451 149.127 326.33 158.248 326.33 169.499C326.33 180.75 335.451 189.87 346.702 189.87Z" fill="#E6E6E6"/>
<path d="M396.629 195.677L375.34 174.389C376.972 171.85 378.078 169.01 378.592 166.037C379.106 163.064 379.019 160.017 378.334 157.079C377.649 154.14 376.382 151.368 374.606 148.928C372.831 146.488 370.584 144.429 367.999 142.874C363.13 139.965 357.347 138.991 351.794 140.145C346.241 141.298 341.324 144.495 338.017 149.102C334.973 153.369 333.512 158.563 333.883 163.792C334.254 169.02 336.435 173.956 340.051 177.75C343.667 181.544 348.492 183.96 353.697 184.583C358.901 185.205 364.159 183.995 368.568 181.161L389.857 202.45C390.755 203.347 391.973 203.851 393.243 203.85C394.512 203.85 395.73 203.345 396.627 202.448C397.525 201.55 398.03 200.332 398.03 199.063C398.03 197.793 397.526 196.576 396.629 195.677ZM367.773 173.594C365.136 176.232 361.665 177.873 357.952 178.239C354.24 178.605 350.515 177.672 347.413 175.599C344.312 173.527 342.024 170.443 340.941 166.873C339.858 163.303 340.047 159.468 341.474 156.022C342.902 152.575 345.48 149.73 348.77 147.972C352.06 146.213 355.858 145.65 359.517 146.378C363.176 147.105 366.469 149.079 368.836 151.963C371.202 154.847 372.496 158.462 372.496 162.192C372.499 164.31 372.083 166.408 371.272 168.364C370.462 170.321 369.273 172.098 367.773 173.594Z" fill="#3F4765"/>
<path d="M550.949 227.08C605.393 287.288 447.57 374.058 320.046 374.058C192.521 374.058 104.294 306.827 89.1421 227.08C52.4037 33.7199 402.163 -89.1785 320.046 80.1016C200.351 326.847 508.074 179.664 550.949 227.08Z" fill="#E6E6E6"/>
<path d="M526.521 241.33C580.965 301.538 423.142 388.308 295.618 388.308C168.093 388.308 79.8664 321.077 64.7144 241.33C27.9759 47.9699 377.735 -74.9285 295.618 94.3516C175.923 341.097 483.646 193.914 526.521 241.33Z" fill="#3F4765"/>
<path d="M239.562 77.8118C242.372 77.8118 244.651 75.5334 244.651 72.7228C244.651 69.9122 242.372 67.6338 239.562 67.6338C236.751 67.6338 234.473 69.9122 234.473 72.7228C234.473 75.5334 236.751 77.8118 239.562 77.8118Z" fill="#7963FF"/>
<path d="M124.548 233.539C126.234 233.539 127.601 232.172 127.601 230.485C127.601 228.799 126.234 227.432 124.548 227.432C122.861 227.432 121.494 228.799 121.494 230.485C121.494 232.172 122.861 233.539 124.548 233.539Z" fill="#E6E6E6"/>
<path d="M338.292 338.375C339.978 338.375 341.345 337.007 341.345 335.321C341.345 333.635 339.978 332.268 338.292 332.268C336.605 332.268 335.238 333.635 335.238 335.321C335.238 337.007 336.605 338.375 338.292 338.375Z" fill="#E6E6E6"/>
<path d="M139.306 174.505C140.149 174.505 140.833 173.821 140.833 172.978C140.833 172.135 140.149 171.451 139.306 171.451C138.463 171.451 137.779 172.135 137.779 172.978C137.779 173.821 138.463 174.505 139.306 174.505Z" fill="#E6E6E6"/>
<path d="M265.517 288.502C266.36 288.502 267.044 287.818 267.044 286.975C267.044 286.132 266.36 285.448 265.517 285.448C264.674 285.448 263.99 286.132 263.99 286.975C263.99 287.818 264.674 288.502 265.517 288.502Z" fill="#E6E6E6"/>
<path d="M495.037 273.743C495.88 273.743 496.563 273.059 496.563 272.216C496.563 271.373 495.88 270.689 495.037 270.689C494.193 270.689 493.51 271.373 493.51 272.216C493.51 273.059 494.193 273.743 495.037 273.743Z" fill="#E6E6E6"/>
<path d="M423.279 319.036C424.122 319.036 424.805 318.352 424.805 317.509C424.805 316.666 424.122 315.982 423.279 315.982C422.436 315.982 421.752 316.666 421.752 317.509C421.752 318.352 422.436 319.036 423.279 319.036Z" fill="#E6E6E6"/>
<path d="M348.47 264.074C349.313 264.074 349.997 263.39 349.997 262.547C349.997 261.704 349.313 261.021 348.47 261.021C347.627 261.021 346.943 261.704 346.943 262.547C346.943 263.39 347.627 264.074 348.47 264.074Z" fill="#E6E6E6"/>
<path d="M251.777 113.435C252.62 113.435 253.304 112.752 253.304 111.909C253.304 111.065 252.62 110.382 251.777 110.382C250.934 110.382 250.25 111.065 250.25 111.909C250.25 112.752 250.934 113.435 251.777 113.435Z" fill="#E6E6E6"/>
<path d="M263.99 38.117C264.833 38.117 265.516 37.4335 265.516 36.5902C265.516 35.747 264.833 35.0635 263.99 35.0635C263.146 35.0635 262.463 35.747 262.463 36.5902C262.463 37.4335 263.146 38.117 263.99 38.117Z" fill="#E6E6E6"/>
<path d="M256.865 355.169C257.708 355.169 258.391 354.485 258.391 353.642C258.391 352.799 257.708 352.115 256.865 352.115C256.021 352.115 255.338 352.799 255.338 353.642C255.338 354.485 256.021 355.169 256.865 355.169Z" fill="#E6E6E6"/>
<path d="M181.546 323.107C182.39 323.107 183.073 322.424 183.073 321.58C183.073 320.737 182.39 320.054 181.546 320.054C180.703 320.054 180.02 320.737 180.02 321.58C180.02 322.424 180.703 323.107 181.546 323.107Z" fill="#E6E6E6"/>
<path d="M420.226 268.145C421.069 268.145 421.753 267.462 421.753 266.619C421.753 265.775 421.069 265.092 420.226 265.092C419.383 265.092 418.699 265.775 418.699 266.619C418.699 267.462 419.383 268.145 420.226 268.145Z" fill="#E6E6E6"/>
<path d="M477.706 161.793C477.577 162.044 477.468 162.304 477.38 162.571L453.062 169.328L448.68 165.04L441.344 170.807L448.364 179.153C448.931 179.827 449.701 180.299 450.56 180.498C451.418 180.697 452.318 180.613 453.124 180.257L479.392 168.661C480.283 169.28 481.341 169.612 482.426 169.615C483.511 169.617 484.571 169.289 485.465 168.675C486.359 168.06 487.044 167.188 487.43 166.174C487.816 165.16 487.885 164.053 487.626 162.999C487.367 161.946 486.794 160.996 485.982 160.276C485.171 159.556 484.159 159.101 483.082 158.97C482.006 158.839 480.914 159.039 479.954 159.543C478.993 160.048 478.209 160.833 477.706 161.793Z" fill="#FFB8B8"/>
<path d="M452.206 169.724L443.078 176.828C442.819 177.03 442.518 177.174 442.198 177.25C441.878 177.325 441.545 177.331 441.222 177.266C440.899 177.202 440.595 177.068 440.328 176.875C440.062 176.682 439.84 176.434 439.678 176.147L434.005 166.108C432.978 164.773 432.522 163.086 432.738 161.416C432.953 159.746 433.822 158.229 435.154 157.199C436.486 156.168 438.172 155.708 439.843 155.919C441.513 156.13 443.032 156.995 444.066 158.325L452.381 166.26C452.619 166.488 452.805 166.764 452.927 167.069C453.048 167.375 453.103 167.703 453.086 168.032C453.07 168.361 452.982 168.682 452.83 168.974C452.678 169.266 452.465 169.522 452.206 169.724Z" fill="#7963FF"/>
<path d="M480.038 158.433L489.294 162.597C489.682 162.772 489.984 163.093 490.135 163.49C490.286 163.888 490.272 164.329 490.098 164.716L489.002 167.152C489.131 167.211 489.232 167.318 489.282 167.45C489.332 167.583 489.328 167.729 489.27 167.859L488.832 168.833C488.773 168.962 488.666 169.062 488.534 169.113C488.401 169.163 488.255 169.159 488.125 169.101L487.687 170.075C487.816 170.134 487.916 170.241 487.967 170.373C488.017 170.506 488.013 170.652 487.955 170.782L487.517 171.756C487.458 171.885 487.351 171.985 487.219 172.036C487.086 172.086 486.94 172.082 486.81 172.024L480.892 185.177C480.718 185.565 480.397 185.867 479.999 186.018C479.602 186.169 479.161 186.156 478.773 185.981L469.517 181.817C469.13 181.643 468.827 181.321 468.676 180.924C468.526 180.527 468.539 180.086 468.713 179.698L477.919 159.237C478.093 158.849 478.414 158.547 478.812 158.396C479.209 158.245 479.65 158.259 480.038 158.433Z" fill="#3F4765"/>
<path d="M471.199 180.52L478.624 183.865C478.996 184.031 479.419 184.043 479.8 183.899C480.181 183.755 480.49 183.466 480.659 183.095L484.089 175.467L485.28 172.823L488.384 165.921C488.55 165.549 488.562 165.128 488.418 164.747C488.274 164.367 487.985 164.059 487.615 163.891L485.28 162.838L480.184 160.547C479.812 160.381 479.389 160.369 479.009 160.514C478.628 160.659 478.321 160.95 478.154 161.321L475.152 167.994L471.733 175.59L470.429 178.491C470.263 178.862 470.251 179.284 470.395 179.664C470.539 180.045 470.828 180.353 471.199 180.52Z" fill="#F2F2F2"/>
<path d="M455.683 275.039L461.922 275.038L464.89 250.973L455.682 250.973L455.683 275.039Z" fill="#FFB8B8"/>
<path d="M454.092 273.001L466.379 273.001C467.407 273.001 468.426 273.203 469.376 273.597C470.326 273.99 471.189 274.567 471.916 275.294C472.643 276.021 473.22 276.885 473.614 277.835C474.007 278.785 474.21 279.803 474.21 280.831V281.086L454.092 281.086L454.092 273.001Z" fill="#3F4765"/>
<path d="M471.968 273.511L478.207 273.511L481.176 249.445L471.967 249.446L471.968 273.511Z" fill="#FFB8B8"/>
<path d="M470.377 271.474L482.664 271.474C483.692 271.474 484.711 271.676 485.661 272.07C486.611 272.463 487.474 273.04 488.201 273.767C488.929 274.494 489.505 275.357 489.899 276.307C490.292 277.257 490.495 278.276 490.495 279.304V279.558L470.377 279.559L470.377 271.474Z" fill="#3F4765"/>
<path d="M427.697 218.567C429.027 222.508 431.548 225.937 434.912 228.382C438.277 230.826 442.318 232.164 446.476 232.211L446.792 232.216C450.013 232.308 453.794 231.27 457.504 229.779C464.833 226.832 471.871 222.114 473.739 220.817L470.573 251.244L469.291 263.58C469.258 263.9 469.293 264.222 469.393 264.527C469.493 264.832 469.655 265.112 469.87 265.351C470.085 265.589 470.347 265.78 470.64 265.91C470.933 266.041 471.25 266.109 471.571 266.11H479.474C479.981 266.11 480.473 265.942 480.875 265.633C481.276 265.324 481.564 264.89 481.693 264.4L494.741 214.705C495.133 213.217 495.164 211.658 494.833 210.156C494.502 208.654 493.818 207.252 492.838 206.067C491.858 204.882 490.609 203.947 489.196 203.34C487.783 202.733 486.245 202.472 484.711 202.577L457.606 204.435L459.499 196.862L435.305 195.254L435.234 195.305C434.654 195.727 434.089 196.17 433.55 196.633C432.201 197.774 431.005 199.084 429.992 200.531C428.181 203.128 427.025 206.126 426.625 209.267C426.226 212.408 426.594 215.599 427.697 218.567Z" fill="#3F4765"/>
<path d="M427.697 218.567C429.027 222.508 431.548 225.937 434.912 228.382C438.277 230.826 442.318 232.164 446.476 232.211C450.453 230.199 454.29 227.922 457.962 225.397L457.504 229.778L453.514 268.161C453.482 268.48 453.517 268.802 453.617 269.107C453.716 269.412 453.879 269.692 454.094 269.931C454.308 270.169 454.571 270.36 454.864 270.49C455.157 270.621 455.474 270.689 455.794 270.69H463.698C464.205 270.69 464.697 270.523 465.099 270.213C465.5 269.904 465.788 269.47 465.917 268.98L470.573 251.244L478.965 219.285C479.356 217.797 479.388 216.238 479.057 214.736C478.726 213.234 478.042 211.832 477.062 210.647C476.081 209.462 474.833 208.527 473.42 207.92C472.006 207.313 470.469 207.052 468.934 207.157L441.83 209.015L443.723 201.442L429.992 200.531C428.18 203.128 427.025 206.126 426.625 209.267C426.226 212.408 426.594 215.599 427.697 218.567Z" fill="#3F4765"/>
<path d="M433.515 198.389L433.333 198.367L429.111 177.611C429.075 177.431 425.624 159.527 436.204 150.168L436.388 148.887C436.435 148.559 436.553 148.246 436.733 147.968C436.913 147.69 437.151 147.454 437.431 147.277C437.711 147.1 438.026 146.986 438.354 146.943C438.683 146.899 439.017 146.928 439.333 147.026L449.3 150.117C449.864 150.291 450.339 150.676 450.625 151.193C450.912 151.709 450.987 152.316 450.836 152.887L449.867 156.572C451.211 158.15 467.025 177.189 461.517 191.858L459.049 201.502L433.515 198.389Z" fill="#7963FF"/>
<path d="M474.899 182.189C474.661 182.339 474.435 182.507 474.223 182.693L449.847 176.149L448.254 170.229L439.004 171.466L440.806 182.221C440.952 183.09 441.376 183.888 442.013 184.496C442.651 185.104 443.469 185.488 444.344 185.591L472.86 188.96C473.312 189.946 474.055 190.77 474.988 191.324C475.921 191.877 477 192.134 478.082 192.059C479.165 191.984 480.198 191.581 481.046 190.904C481.894 190.228 482.516 189.309 482.829 188.27C483.142 187.231 483.131 186.122 482.798 185.09C482.465 184.057 481.825 183.151 480.965 182.49C480.104 181.83 479.062 181.448 477.979 181.394C476.895 181.34 475.821 181.617 474.899 182.189Z" fill="#FFB8B8"/>
<path d="M448.908 176.055L437.436 177.533C437.11 177.575 436.778 177.546 436.464 177.448C436.15 177.351 435.86 177.186 435.615 176.967C435.37 176.747 435.175 176.477 435.044 176.175C434.912 175.874 434.848 175.547 434.854 175.218L435.073 163.689C434.867 162.018 435.332 160.333 436.367 159.004C437.401 157.676 438.92 156.812 440.591 156.602C442.262 156.391 443.948 156.852 445.279 157.883C446.61 158.914 447.479 160.431 447.693 162.101L450.819 173.162C450.909 173.478 450.929 173.811 450.878 174.136C450.827 174.461 450.707 174.771 450.526 175.046C450.345 175.321 450.106 175.553 449.827 175.727C449.548 175.901 449.234 176.013 448.908 176.055Z" fill="#7963FF"/>
<path d="M445.679 144.208C452.582 144.208 458.179 138.612 458.179 131.708C458.179 124.805 452.582 119.209 445.679 119.209C438.776 119.209 433.18 124.805 433.18 131.708C433.18 138.612 438.776 144.208 445.679 144.208Z" fill="#FFB8B8"/>
<path d="M445.021 132.752L443.456 129.902C440.492 141.98 445.728 151.975 445.728 151.975L425.406 142.509L425.6 139.15L423.589 141.432L420.699 139.84L420.318 137.662L418.137 138.202L426.098 123.755C433.824 110.008 445.057 115.256 445.057 115.256C462.928 114.407 460.746 132.038 460.746 132.038L445.021 132.752Z" fill="#3F4765"/>
<path d="M302.736 225.899C305.618 224.052 302.113 213.443 294.908 202.203C287.703 190.964 279.526 183.35 276.644 185.198C273.762 187.045 277.267 197.654 284.472 208.894C291.677 220.133 299.854 227.747 302.736 225.899Z" fill="#3F4765"/>
<path d="M214.246 260.483H173.213C172.276 260.486 171.35 260.275 170.507 259.866C169.664 259.458 168.925 258.862 168.346 258.124C167.757 257.38 167.346 256.512 167.144 255.585C166.941 254.658 166.953 253.698 167.178 252.776C170.95 236.975 170.95 220.508 167.178 204.707C166.953 203.786 166.941 202.825 167.144 201.898C167.346 200.971 167.757 200.103 168.346 199.359C168.924 198.621 169.663 198.026 170.507 197.617C171.35 197.208 172.276 196.997 173.213 197H214.246C215.724 197.004 217.153 197.533 218.277 198.493C219.402 199.452 220.15 200.779 220.387 202.238C223.091 219.804 223.091 237.68 220.387 255.245C220.15 256.704 219.402 258.031 218.277 258.991C217.153 259.95 215.724 260.479 214.246 260.483Z" fill="#F2F2F2"/>
<path d="M193.845 240.365C200.382 240.365 205.68 235.066 205.68 228.53C205.68 221.993 200.382 216.694 193.845 216.694C187.309 216.694 182.01 221.993 182.01 228.53C182.01 235.066 187.309 240.365 193.845 240.365Z" fill="white"/>
<path d="M199.505 226.986H195.388V222.869C195.388 222.46 195.226 222.067 194.936 221.777C194.647 221.488 194.254 221.325 193.845 221.325C193.435 221.325 193.043 221.488 192.753 221.777C192.464 222.067 192.301 222.46 192.301 222.869V226.986H188.184C187.775 226.986 187.382 227.148 187.093 227.438C186.803 227.727 186.641 228.12 186.641 228.529C186.641 228.939 186.803 229.331 187.093 229.621C187.382 229.91 187.775 230.073 188.184 230.073H192.301V234.19C192.301 234.599 192.464 234.992 192.753 235.281C193.043 235.571 193.435 235.733 193.845 235.733C194.254 235.733 194.647 235.571 194.936 235.281C195.226 234.992 195.388 234.599 195.388 234.19V230.073H199.505C199.915 230.073 200.307 229.91 200.597 229.621C200.886 229.331 201.049 228.939 201.049 228.529C201.049 228.12 200.886 227.727 200.597 227.438C200.307 227.148 199.915 226.986 199.505 226.986Z" fill="#E6E6E6"/>
<path d="M148.989 175.401H107.956C107.057 175.404 106.17 175.202 105.362 174.81C104.554 174.418 103.845 173.847 103.291 173.14C102.726 172.427 102.332 171.594 102.138 170.705C101.944 169.816 101.955 168.895 102.171 168.011C105.952 152.171 105.952 135.663 102.17 119.822C101.955 118.939 101.944 118.017 102.138 117.129C102.332 116.24 102.726 115.407 103.291 114.693C103.845 113.987 104.553 113.416 105.362 113.024C106.17 112.632 107.057 112.43 107.956 112.433H148.989C150.406 112.437 151.775 112.944 152.853 113.863C153.931 114.782 154.648 116.054 154.875 117.453C157.576 134.992 157.576 152.842 154.875 170.381C154.648 171.78 153.931 173.052 152.853 173.971C151.775 174.89 150.406 175.397 148.989 175.401Z" fill="#E6E6E6"/>
<path d="M107.955 115.52C107.523 115.518 107.097 115.615 106.709 115.803C106.321 115.991 105.98 116.265 105.714 116.604C105.44 116.952 105.248 117.358 105.154 117.791C105.06 118.223 105.066 118.672 105.172 119.102C109.067 135.416 109.067 152.417 105.172 168.731C105.066 169.161 105.06 169.609 105.154 170.042C105.248 170.475 105.439 170.88 105.714 171.228C105.98 171.567 106.321 171.842 106.709 172.03C107.097 172.218 107.523 172.315 107.955 172.313H148.988C149.668 172.313 150.327 172.072 150.846 171.632C151.365 171.193 151.711 170.583 151.823 169.912C154.475 152.683 154.475 135.15 151.823 117.921C151.711 117.25 151.365 116.64 150.846 116.2C150.327 115.761 149.668 115.519 148.988 115.52L107.955 115.52Z" fill="white"/>
<path d="M140.034 138.084H118.501C117.683 138.083 116.898 137.758 116.319 137.179C115.741 136.6 115.415 135.816 115.414 134.997V133.79C115.415 132.972 115.741 132.187 116.319 131.608C116.898 131.03 117.683 130.704 118.501 130.703H140.034C140.853 130.704 141.637 131.03 142.216 131.608C142.795 132.187 143.12 132.972 143.121 133.79V134.997C143.12 135.816 142.795 136.6 142.216 137.179C141.637 137.758 140.853 138.083 140.034 138.084Z" fill="#E6E6E6"/>
<path d="M140.034 153.329H118.501C117.683 153.329 116.898 153.003 116.319 152.424C115.741 151.845 115.415 151.061 115.414 150.242V149.036C115.415 148.217 115.741 147.432 116.319 146.853C116.898 146.275 117.683 145.949 118.501 145.948H140.034C140.853 145.949 141.637 146.275 142.216 146.853C142.795 147.432 143.12 148.217 143.121 149.036V150.242C143.12 151.061 142.795 151.845 142.216 152.424C141.637 153.003 140.853 153.329 140.034 153.329Z" fill="#E6E6E6"/>
<path d="M139.908 118.748H118.296C117.682 118.747 117.094 118.503 116.659 118.069C116.225 117.635 115.981 117.046 115.98 116.432V112.316C115.981 111.702 116.225 111.113 116.659 110.679C117.094 110.245 117.682 110.001 118.296 110H139.908C140.522 110.001 141.111 110.245 141.545 110.679C141.979 111.113 142.223 111.702 142.224 112.316V116.432C142.223 117.046 141.979 117.635 141.545 118.069C141.111 118.503 140.522 118.747 139.908 118.748Z" fill="#F2EFFF"/>
<path d="M115.352 248.55C115.054 248.549 114.759 248.492 114.484 248.38L94.4469 240.279C93.878 240.048 93.4239 239.601 93.1841 239.036C92.9444 238.471 92.9385 237.834 93.168 237.264L94.7111 233.447C94.9413 232.878 95.3883 232.424 95.9536 232.184C96.519 231.944 97.1565 231.939 97.7258 232.169L117.762 240.27C118.331 240.5 118.786 240.947 119.025 241.513C119.265 242.078 119.271 242.715 119.041 243.284L117.498 247.101C117.325 247.528 117.028 247.894 116.646 248.152C116.264 248.41 115.813 248.549 115.352 248.55Z" fill="#F2EFFF"/>
<path d="M45.5889 365.515H51.8977L53.87 341.182H45.5879L45.5889 365.515Z" fill="#FFB8B8"/>
<path d="M43.9805 363.456L56.4044 363.455H56.4049C57.4446 363.455 58.4742 363.66 59.4348 364.058C60.3954 364.456 61.2682 365.039 62.0035 365.774C62.7387 366.509 63.3219 367.382 63.7198 368.343C64.1177 369.303 64.3225 370.333 64.3224 371.373V371.63L43.9809 371.631L43.9805 363.456Z" fill="#3F4765"/>
<path d="M11.628 365.515H17.9367L20.9383 341.182H11.627L11.628 365.515Z" fill="#FFB8B8"/>
<path d="M10.0176 363.456L22.4415 363.455H22.442C23.4817 363.455 24.5113 363.66 25.4719 364.058C26.4325 364.456 27.3054 365.039 28.0406 365.774C28.7758 366.509 29.359 367.382 29.7569 368.343C30.1548 369.303 30.3596 370.333 30.3596 371.373V371.63L10.018 371.631L10.0176 363.456Z" fill="#3F4765"/>
<path d="M12.7466 357.829C12.103 357.828 11.4831 357.586 11.0099 357.15C10.7558 356.918 10.5513 356.638 10.4084 356.325C10.2655 356.012 10.1873 355.674 10.1784 355.33L7.64844 264.654L43.5718 273.635L54.6556 306.886C56.0849 311.163 56.7036 315.67 56.48 320.174L55.1037 352.406C55.0724 353.066 54.7878 353.689 54.3092 354.145C53.8306 354.601 53.1948 354.855 52.5337 354.855H46.5085C45.8866 354.852 45.2865 354.625 44.8182 354.216C44.3499 353.807 44.0448 353.243 43.9589 352.627L39.6524 317.048C39.2761 314.272 38.3052 311.611 36.8059 309.245L28.331 295.827C28.2744 295.737 28.1914 295.667 28.0935 295.626C27.9956 295.586 27.8874 295.576 27.784 295.599C27.6805 295.622 27.5867 295.677 27.5153 295.755C27.444 295.834 27.3986 295.932 27.3854 296.038L20.7347 355.26C20.6633 355.86 20.3823 356.417 19.9411 356.83C19.4999 357.244 18.9269 357.489 18.3229 357.522L12.893 357.824C12.8442 357.827 12.7954 357.829 12.7466 357.829Z" fill="#3F4765"/>
<path d="M37.5937 205.947C44.5738 205.947 50.2323 200.289 50.2323 193.309C50.2323 186.328 44.5738 180.67 37.5937 180.67C30.6136 180.67 24.9551 186.328 24.9551 193.309C24.9551 200.289 30.6136 205.947 37.5937 205.947Z" fill="#FFB8B8"/>
<path d="M43.4008 277.322C43.1834 277.322 42.9668 277.294 42.7561 277.24L7.11375 268.101C6.47651 267.938 5.92601 267.537 5.57543 266.98C5.22486 266.424 5.10084 265.754 5.22891 265.109L13.4144 221.014C13.9244 218.465 15.0453 216.078 16.6811 214.058C18.3168 212.038 20.4183 210.445 22.8053 209.416C25.1312 208.386 27.6746 207.945 30.2113 208.131C32.7479 208.318 35.1997 209.125 37.3502 210.483C37.8493 210.795 38.3519 211.134 38.8439 211.493C40.8244 212.954 42.4396 214.854 43.5626 217.044C44.6856 219.233 45.286 221.654 45.3167 224.115L45.9676 274.713C45.9719 275.053 45.9088 275.391 45.7819 275.707C45.655 276.022 45.4668 276.31 45.2281 276.552C44.9895 276.795 44.7051 276.988 44.3915 277.12C44.0779 277.252 43.7412 277.321 43.4008 277.322Z" fill="#7963FF"/>
<path d="M10.7794 277.841C10.3542 277.215 10.0714 276.504 9.95087 275.757C9.83034 275.01 9.87502 274.246 10.0818 273.519C10.2885 272.791 10.6523 272.117 11.1475 271.546C11.6427 270.974 12.2572 270.517 12.9478 270.209L11.3625 251.889L19.7636 256.442L19.981 273.141C20.4227 274.335 20.4108 275.65 19.9476 276.837C19.4844 278.023 18.6021 278.999 17.4679 279.578C16.3337 280.157 15.0264 280.301 13.7936 279.98C12.5609 279.66 11.4884 278.899 10.7794 277.841Z" fill="#FFB8B8"/>
<path d="M13.781 267.785C13.544 267.785 13.3079 267.755 13.0782 267.697C12.5843 267.571 12.1336 267.313 11.7738 266.952C11.414 266.591 11.1586 266.14 11.0344 265.645L6.9058 249.238C5.46298 243.508 6.15078 237.449 8.84126 232.188L17.4907 215.268C18.0375 213.242 19.3586 211.512 21.1691 210.451C22.9796 209.391 25.1345 209.084 27.169 209.598C28.183 209.854 29.1362 210.309 29.9731 210.936C30.81 211.563 31.5141 212.35 32.0446 213.252C32.5859 214.166 32.94 215.179 33.0861 216.231C33.2322 217.284 33.1675 218.355 32.8957 219.382L20.5831 246.915L20.7293 263.4C20.7331 263.981 20.5583 264.55 20.2284 265.029C19.8985 265.508 19.4295 265.874 18.8849 266.078L14.7644 267.608C14.4498 267.725 14.1168 267.785 13.781 267.785Z" fill="#7963FF"/>
<path d="M72.7194 271.103C71.9678 271.017 71.2442 270.767 70.5996 270.371C69.9549 269.976 69.4049 269.443 68.9882 268.812C68.5715 268.18 68.2984 267.465 68.1879 266.717C68.0775 265.969 68.1325 265.205 68.3491 264.48L53.4297 253.731L62.361 250.334L75.1595 261.062C76.353 261.507 77.342 262.374 77.9391 263.499C78.5361 264.624 78.6998 265.929 78.399 267.166C78.0983 268.404 77.354 269.488 76.3072 270.214C75.2604 270.939 73.9838 271.256 72.7194 271.103Z" fill="#FFB8B8"/>
<path d="M64.9083 263.252C64.4684 263.252 64.0346 263.15 63.641 262.953L48.5128 255.38C43.2288 252.735 39.0851 248.261 36.8521 242.791L29.67 225.197C28.4914 223.461 28.0422 221.331 28.4193 219.267C28.7964 217.203 29.9696 215.369 31.686 214.162C32.5435 213.559 33.5125 213.133 34.5365 212.908C35.5605 212.684 36.6189 212.665 37.6501 212.853C38.6935 213.041 39.6892 213.434 40.5797 214.009C41.4701 214.584 42.2376 215.33 42.8375 216.204L55.6737 243.497L68.2633 254.14C68.7066 254.517 69.0237 255.02 69.1715 255.583C69.3194 256.145 69.291 256.74 69.0901 257.285L67.5619 261.406C67.3624 261.947 67.002 262.413 66.5292 262.742C66.054 263.074 65.4881 263.253 64.9083 263.252Z" fill="#7963FF"/>
<path d="M34.9403 206.141C35.6118 206.435 36.987 201.084 36.371 200.014C35.4549 198.422 35.5091 198.434 34.9009 197.381C34.2928 196.328 34.1567 194.887 34.9442 193.96C35.7317 193.034 37.5542 193.156 37.9136 194.318C37.6824 192.112 39.8648 190.338 42.0266 189.84C44.1884 189.341 46.4687 189.651 48.6424 189.207C51.1651 188.692 53.7898 186.578 52.7833 183.804C52.6106 183.342 52.352 182.917 52.0212 182.551C50.8583 181.244 49.2316 180.685 47.6411 180.146C44.3323 179.022 40.933 177.885 37.441 178.009C34.5638 178.16 31.7929 179.146 29.4672 180.846C27.1416 182.547 25.3623 184.889 24.3469 187.585C24.1062 188.26 23.9198 188.952 23.7894 189.657C22.5908 196.101 26.3333 202.458 32.4118 204.912L34.9403 206.141Z" fill="#3F4765"/>
<path opacity="0.2" d="M20.0176 263.774L20.3042 246.829L29.28 228.782L22.0759 247.307L20.0176 263.774Z" fill="black"/>
<path d="M101.413 306.298L63.5198 290.555C62.6892 290.212 61.9476 289.685 61.3514 289.013C60.7552 288.341 60.3201 287.542 60.0792 286.677C59.8316 285.801 59.7871 284.881 59.9489 283.986C60.1107 283.091 60.4746 282.244 61.013 281.511C70.583 268.334 76.9169 253.089 79.502 237.01C79.642 236.111 79.9852 235.256 80.5054 234.51C81.0257 233.763 81.7093 233.145 82.5043 232.703C83.2875 232.263 84.1608 232.008 85.0577 231.956C85.9545 231.904 86.8513 232.058 87.6798 232.405L125.573 248.149C126.879 248.696 127.949 249.69 128.592 250.952C129.235 252.215 129.409 253.665 129.082 255.043C124.847 272.277 117.998 288.76 108.774 303.921C108.028 305.125 106.878 306.025 105.53 306.46C104.181 306.896 102.722 306.838 101.413 306.298Z" fill="#E6E6E6"/>
<path d="M86.494 235.257C86.0961 235.09 85.6655 235.016 85.2348 235.041C84.8041 235.065 84.3846 235.188 84.0084 235.399C83.6217 235.615 83.2893 235.916 83.0365 236.28C82.7836 236.643 82.6171 237.06 82.5495 237.497C79.887 254.057 73.3639 269.757 63.5079 283.328C63.2454 283.684 63.0678 284.096 62.9885 284.532C62.9092 284.968 62.9303 285.415 63.0502 285.842C63.1659 286.257 63.3751 286.641 63.6615 286.964C63.9479 287.287 64.3042 287.54 64.7031 287.704L102.596 303.448C103.224 303.709 103.925 303.739 104.573 303.532C105.221 303.325 105.775 302.895 106.135 302.318C115.195 287.425 121.922 271.234 126.083 254.306C126.238 253.644 126.152 252.948 125.841 252.342C125.531 251.737 125.015 251.262 124.387 251.001L86.494 235.257Z" fill="white"/>
<path d="M106.671 270.303L86.7865 262.042C86.0309 261.727 85.4312 261.125 85.1188 260.369C84.8063 259.612 84.8068 258.762 85.12 258.006L85.5829 256.892C85.8978 256.136 86.4996 255.537 87.2561 255.224C88.0127 254.912 88.8623 254.912 89.6186 255.225L109.503 263.487C110.259 263.802 110.858 264.404 111.171 265.16C111.483 265.917 111.483 266.767 111.17 267.523L110.707 268.637C110.392 269.393 109.79 269.992 109.034 270.305C108.277 270.617 107.427 270.617 106.671 270.303Z" fill="#7963FF"/>
<path d="M100.822 284.381L80.9369 276.119C80.1813 275.804 79.5816 275.202 79.2691 274.446C78.9567 273.689 78.9572 272.84 79.2704 272.083L79.7333 270.969C80.0482 270.214 80.65 269.614 81.4065 269.301C82.1631 268.989 83.0127 268.989 83.769 269.303L103.654 277.564C104.409 277.879 105.009 278.481 105.321 279.238C105.634 279.994 105.633 280.844 105.32 281.6L104.857 282.714C104.542 283.47 103.941 284.069 103.184 284.382C102.427 284.694 101.578 284.694 100.822 284.381Z" fill="#7963FF"/>
<path d="M72.5557 371.916H0.514579C0.378104 371.916 0.247227 371.862 0.150724 371.765C0.0542219 371.669 0 371.538 0 371.401C0 371.265 0.0542219 371.134 0.150724 371.037C0.247227 370.941 0.378104 370.887 0.514579 370.887H72.5557C72.6922 370.887 72.8231 370.941 72.9196 371.037C73.0161 371.134 73.0703 371.265 73.0703 371.401C73.0703 371.538 73.0161 371.669 72.9196 371.765C72.8231 371.862 72.6922 371.916 72.5557 371.916Z" fill="#F2EFFF"/>
</svg>
