<svg width="226" height="26" viewBox="0 0 226 26" fill="none" xmlns="http://www.w3.org/2000/svg">
<path d="M26.7925 1.8636C27.9449 1.8636 28.879 2.79778 28.879 3.95016V23.0934C28.879 24.2458 27.9449 25.18 26.7925 25.18L2.08943 25.18C0.517042 25.18 -0.490355 23.5068 0.245344 22.1171L7.42559 2.97388C7.78721 2.29081 8.49679 1.8636 9.26967 1.8636L26.7925 1.8636Z" fill="#9482FF"/>
<path d="M22.6194 0.820313C23.1955 0.820313 23.6626 1.28741 23.6626 1.8636V2.90688C23.6626 3.48307 23.1955 3.95016 22.6194 3.95016L13.2298 3.95016C12.6536 3.95016 12.1865 3.48307 12.1865 2.90688V1.8636C12.1865 1.28741 12.6536 0.820312 13.2298 0.820313L22.6194 0.820313Z" fill="#241E4C"/>
<path d="M36.3496 20.0614C37.4931 18.7694 38.5327 17.4402 39.4683 16.0739C40.4039 14.6928 41.3024 13.2448 42.1637 11.73C42.134 11.5518 42.1192 11.3662 42.1192 11.1731C42.1192 10.4306 42.2528 9.8811 42.5202 9.52468C42.8023 9.16826 43.0325 8.95292 43.2107 8.87867C43.4632 8.81927 43.7305 8.82669 44.0127 8.90095C44.3097 8.96035 44.577 9.06431 44.8146 9.21281C45.0522 9.36132 45.2156 9.53953 45.3047 9.74745C45.2601 10.0296 45.1265 10.386 44.9037 10.8167C44.6958 11.2474 44.4508 11.7003 44.1686 12.1756C44.2726 12.3538 44.4062 12.5246 44.5696 12.6879C44.7478 12.8513 44.9557 13.0295 45.1933 13.2226L46.8863 14.6037C47.4952 15.0938 47.9481 15.6061 48.2452 16.1407C48.557 16.6605 48.713 17.2471 48.713 17.9006C48.713 18.6877 48.4902 19.3857 48.0447 19.9946C48.1189 20.1579 48.1561 20.351 48.1561 20.5737C48.1561 20.8559 48.0818 21.0787 47.9333 21.242C47.7996 21.4202 47.6066 21.5093 47.3541 21.5093C47.1165 21.5093 46.8863 21.4945 46.6635 21.4648C46.4408 21.4351 46.1957 21.398 45.9284 21.3534C45.5275 21.4574 45.1042 21.5093 44.6587 21.5093C44.1389 21.5093 43.6191 21.4277 43.0993 21.2643C42.5796 21.1158 42.0375 20.8708 41.4732 20.5292C41.4435 19.7421 41.7405 19.1629 42.3642 18.7916C43.181 19.3263 43.9533 19.5936 44.681 19.5936C45.3047 19.5936 45.8022 19.4302 46.1735 19.1035C46.5447 18.7619 46.7304 18.3313 46.7304 17.8115C46.7304 17.158 46.374 16.5491 45.6611 15.9848L43.9681 14.6482C43.6562 14.4106 43.3889 14.1582 43.1662 13.8908C42.6315 14.7819 42.0449 15.7026 41.4063 16.6531C40.7826 17.5887 40.1589 18.4723 39.5351 19.304C38.9114 20.1208 38.3471 20.7965 37.8421 21.3311C37.0105 21.242 36.513 20.8188 36.3496 20.0614Z" fill="#241E4C"/>
<path d="M47.3397 21.5093C47.1466 21.5093 46.9907 21.4202 46.8719 21.242C46.7531 21.0638 46.6937 20.8336 46.6937 20.5515C46.6937 20.2544 46.7679 20.0243 46.9164 19.8609C47.0501 19.6975 47.2357 19.6159 47.4733 19.6159C48.4089 19.6159 49.2406 19.3114 49.9683 18.7025C50.696 18.0788 51.3568 17.1135 51.9509 15.8066L53.087 13.2894C53.577 12.2201 54.082 11.4701 54.6017 11.0395C55.1215 10.5939 55.7453 10.3712 56.473 10.3712C57.1115 10.3712 57.6536 10.5568 58.0991 10.9281C58.5595 11.2845 58.8862 11.782 59.0793 12.4206C59.4209 11.7672 59.8664 11.2622 60.4159 10.9058C60.9802 10.5494 61.6114 10.3712 62.3094 10.3712C63.7647 10.3712 64.7523 11.1212 65.2721 12.6211C65.6285 11.9082 66.1112 11.3588 66.7201 10.9726C67.329 10.5717 68.0195 10.3712 68.7918 10.3712C69.8462 10.3712 70.6555 10.7053 71.2199 11.3736C71.7842 12.0419 72.0664 12.9849 72.0664 14.2027V17.2991C72.0664 18.1605 72.1778 18.7619 72.4005 19.1035C72.6381 19.4302 72.9797 19.5936 73.4252 19.5936C73.6332 19.5936 73.7891 19.6827 73.893 19.8609C74.0118 20.0391 74.0713 20.2767 74.0713 20.5737C74.0713 20.8114 74.0044 21.0267 73.8708 21.2197C73.752 21.4128 73.5515 21.5093 73.2693 21.5093C72.3634 21.5093 71.5986 21.2049 70.9748 20.596C70.3511 19.9723 70.0392 18.955 70.0392 17.5442V14.6928C70.0392 13.9205 69.8982 13.3265 69.616 12.9107C69.3338 12.4949 68.9328 12.2869 68.4131 12.2869C67.626 12.2869 67.0022 12.7399 66.5419 13.6458C66.0963 14.5369 65.8736 15.7769 65.8736 17.3659V21.1975C65.7251 21.242 65.5617 21.2792 65.3835 21.3089C65.2053 21.3386 65.0345 21.3534 64.8711 21.3534C64.5147 21.3534 64.1731 21.3014 63.8464 21.1975V15.0047C63.8464 14.1285 63.6905 13.4602 63.3786 12.9998C63.0816 12.5246 62.6361 12.2869 62.042 12.2869C61.5074 12.2869 61.0322 12.5023 60.6164 12.933C60.2154 13.3488 59.8961 13.9428 59.6585 14.7151C59.4357 15.4725 59.3243 16.3561 59.3243 17.3659V21.1975C59.1758 21.242 59.0125 21.2792 58.8342 21.3089C58.656 21.3386 58.4853 21.3534 58.3219 21.3534C57.9506 21.3534 57.6165 21.3014 57.3195 21.1975V14.0913C57.3195 12.8884 56.9779 12.2869 56.2947 12.2869C56.0868 12.2869 55.8715 12.3909 55.6487 12.5988C55.426 12.8067 55.1438 13.2968 54.8022 14.0691L53.5102 16.965C52.1885 19.9946 50.1316 21.5093 47.3397 21.5093Z" fill="#241E4C"/>
<path d="M73.4348 19.5936C73.9397 19.5936 74.4298 19.3485 74.905 18.8585C75.3951 18.3535 75.8035 17.6778 76.1302 16.8313C76.1154 16.6234 76.108 16.4155 76.108 16.2076C76.108 15.0789 76.3307 14.0765 76.7763 13.2003C77.2218 12.3241 77.8232 11.6335 78.5806 11.1286C79.3529 10.6236 80.2291 10.3712 81.2092 10.3712C81.729 10.3712 82.2414 10.4751 82.7463 10.6831C83.2512 10.8761 83.6745 11.1434 84.0161 11.485V10.5717C84.1497 10.5271 84.3057 10.49 84.4839 10.4603C84.6621 10.4306 84.8477 10.4157 85.0408 10.4157C85.3972 10.4157 85.7313 10.4677 86.0432 10.5717V17.0986C86.0432 17.8857 86.162 18.502 86.3996 18.9476C86.6521 19.3782 87.0679 19.5936 87.6471 19.5936C87.8996 19.5936 88.0704 19.6975 88.1595 19.9054C88.2486 20.1134 88.2931 20.3361 88.2931 20.5737C88.2931 20.8114 88.2263 21.0267 88.0926 21.2197C87.9738 21.4128 87.7733 21.5093 87.4912 21.5093C86.0358 21.5093 85.063 20.8559 84.573 19.549C84.1423 20.1579 83.6002 20.6406 82.9468 20.997C82.3082 21.3386 81.5954 21.5093 80.8083 21.5093C79.9469 21.5093 79.1821 21.3237 78.5138 20.9524C77.8604 20.5663 77.3257 20.0391 76.9099 19.3708C75.9892 20.7965 74.7788 21.5093 73.2789 21.5093C73.0858 21.5093 72.9299 21.4202 72.8111 21.242C72.6923 21.0638 72.6329 20.8336 72.6329 20.5515C72.6329 19.9129 72.9002 19.5936 73.4348 19.5936ZM78.1797 16.2076C78.1797 17.262 78.4173 18.0936 78.8925 18.7025C79.3826 19.2966 80.0509 19.5936 80.8974 19.5936C81.833 19.5936 82.583 19.252 83.1473 18.5689C83.7265 17.8709 84.0161 16.9575 84.0161 15.8289V13.6235C83.719 13.2226 83.3403 12.9033 82.88 12.6656C82.4196 12.4132 81.9444 12.2869 81.4543 12.2869C80.8157 12.2869 80.2514 12.4577 79.7613 12.7993C79.2712 13.1409 78.8851 13.6087 78.6029 14.2027C78.3207 14.7819 78.1797 15.4502 78.1797 16.2076Z" fill="#241E4C"/>
<path d="M87.4844 21.5093C87.2913 21.5093 87.1354 21.4202 87.0166 21.242C86.8978 21.0638 86.8384 20.8336 86.8384 20.5515C86.8384 19.9129 87.1057 19.5936 87.6403 19.5936C88.2938 19.5936 88.8729 19.3263 89.3779 18.7916C89.8976 18.2421 90.306 17.4996 90.6031 16.564C90.9149 15.6284 91.0709 14.5888 91.0709 13.4453C91.0709 13.178 91.056 12.933 91.0263 12.7102C90.9966 12.4874 90.9595 12.3018 90.9149 12.1533C90.7813 12.0196 90.6328 11.8043 90.4694 11.5073C90.3209 11.2103 90.1872 10.8984 90.0684 10.5717C89.9645 10.2301 89.9125 9.95536 89.9125 9.74745C90.0907 9.46528 90.3729 9.24994 90.759 9.10143C91.16 8.93807 91.5981 8.89352 92.0733 8.96777C92.3555 9.48756 92.5857 10.141 92.7639 10.9281C93.2094 10.9132 93.8109 10.8167 94.5682 10.6385C95.0435 10.5345 95.4222 10.4677 95.7043 10.438C96.0014 10.3935 96.2538 10.3712 96.4617 10.3712C97.2637 10.3712 97.8948 10.6756 98.3552 11.2845C98.8156 11.8785 99.0458 12.6879 99.0458 13.7126V17.2991C99.0458 18.1605 99.1572 18.7619 99.3799 19.1035C99.6175 19.4302 99.9591 19.5936 100.405 19.5936C100.613 19.5936 100.768 19.6827 100.872 19.8609C100.991 20.0391 101.051 20.2767 101.051 20.5737C101.051 20.8114 100.984 21.0267 100.85 21.2197C100.731 21.4128 100.531 21.5093 100.249 21.5093C99.3428 21.5093 98.578 21.2049 97.9542 20.596C97.3305 19.9723 97.0186 18.955 97.0186 17.5442V14.0913C97.0186 13.423 96.9444 12.9552 96.7959 12.6879C96.6474 12.4206 96.3801 12.2869 95.9939 12.2869C95.8603 12.2869 95.7118 12.3018 95.5484 12.3315C95.385 12.3612 95.0955 12.4206 94.6796 12.5097C93.9519 12.6582 93.4025 12.7473 93.0312 12.777C93.046 13.0146 93.0535 13.2523 93.0535 13.4899C93.0535 15.0938 92.8233 16.4972 92.3629 17.7001C91.9025 18.903 91.2491 19.8386 90.4026 20.5069C89.5709 21.1752 88.5982 21.5093 87.4844 21.5093Z" fill="#241E4C"/>
<path d="M100.41 19.5936C100.781 19.5936 101.205 19.4822 101.68 19.2594C102.17 19.0367 102.645 18.658 103.105 18.1233C103.566 17.5887 103.945 16.8684 104.242 15.9625C104.539 15.0418 104.687 13.8908 104.687 12.5097V10.3712H103.039C102.935 10.1336 102.883 9.83655 102.883 9.48013C102.883 9.12371 102.935 8.82669 103.039 8.58908H104.687V4.64617C104.969 4.54221 105.311 4.49023 105.712 4.49023C106.068 4.49023 106.41 4.54221 106.737 4.64617V8.58908H110.056C110.174 8.82669 110.234 9.12371 110.234 9.48013C110.234 9.83655 110.174 10.1336 110.056 10.3712H106.737V14.9824C106.737 16.4675 106.959 17.611 107.405 18.4129C107.865 19.2 108.511 19.5936 109.343 19.5936C109.774 19.5936 109.989 19.9203 109.989 20.5737C109.989 20.8559 109.915 21.0787 109.766 21.242C109.632 21.4202 109.439 21.5093 109.187 21.5093C108.222 21.5093 107.405 21.2346 106.737 20.6851C106.083 20.1356 105.6 19.3708 105.289 18.3907C104.665 19.4599 103.9 20.247 102.994 20.7519C102.088 21.2569 101.175 21.5093 100.254 21.5093C100.061 21.5093 99.9051 21.4128 99.7863 21.2197C99.6675 21.0415 99.6081 20.8188 99.6081 20.5515C99.6081 20.2693 99.6749 20.0391 99.8086 19.8609C99.9422 19.6827 100.143 19.5936 100.41 19.5936Z" fill="#241E4C"/>
<path d="M109.195 21.5093C109.002 21.5093 108.846 21.4202 108.727 21.242C108.608 21.0638 108.549 20.8336 108.549 20.5515C108.549 19.9129 108.816 19.5936 109.351 19.5936C109.826 19.5936 110.25 19.356 110.621 18.8807C111.007 18.3907 111.341 17.5813 111.623 16.4526L112.291 13.8463C112.915 11.5296 114.103 10.3712 115.856 10.3712C116.524 10.3712 117.088 10.5717 117.549 10.9726C118.009 11.3588 118.328 11.886 118.507 12.5543C118.922 11.8563 119.457 11.3216 120.11 10.9504C120.764 10.5642 121.492 10.3712 122.294 10.3712C123.452 10.3712 124.343 10.7499 124.967 11.5073C125.605 12.2647 125.925 13.3265 125.925 14.6928V17.2991C125.925 18.1605 126.036 18.7619 126.259 19.1035C126.496 19.4302 126.838 19.5936 127.283 19.5936C127.491 19.5936 127.647 19.6827 127.751 19.8609C127.87 20.0391 127.929 20.2767 127.929 20.5737C127.929 20.8114 127.863 21.0267 127.729 21.2197C127.61 21.4128 127.41 21.5093 127.128 21.5093C126.222 21.5093 125.457 21.2049 124.833 20.596C124.209 19.9723 123.897 18.955 123.897 17.5442V14.6928C123.897 13.0889 123.266 12.2869 122.004 12.2869C121.351 12.2869 120.771 12.5468 120.266 13.0666C119.776 13.5864 119.39 14.3067 119.108 15.2274C118.841 16.1482 118.707 17.2174 118.707 18.4352V21.1975C118.559 21.242 118.395 21.2792 118.217 21.3089C118.039 21.3386 117.868 21.3534 117.705 21.3534C117.348 21.3534 117.014 21.3014 116.702 21.1975V14.0913C116.702 12.8884 116.361 12.2869 115.677 12.2869C115.366 12.2869 115.098 12.428 114.876 12.7102C114.653 12.9924 114.46 13.4453 114.296 14.0691L113.472 17.2768C113.086 18.7471 112.551 19.8238 111.868 20.5069C111.185 21.1752 110.294 21.5093 109.195 21.5093Z" fill="#241E4C"/>
<path d="M127.276 19.5936C127.767 19.5936 128.242 19.3634 128.702 18.903C129.177 18.4278 129.578 17.7966 129.905 17.0095C129.846 16.6531 129.816 16.2893 129.816 15.918C129.816 14.8487 130.046 13.8983 130.507 13.0666C130.967 12.235 131.591 11.5815 132.378 11.1063C133.18 10.6162 134.078 10.3712 135.073 10.3712C136.068 10.3712 136.959 10.6162 137.746 11.1063C138.533 11.5815 139.15 12.235 139.595 13.0666C140.056 13.8983 140.286 14.8487 140.286 15.918C140.286 16.9872 140.056 17.9451 139.595 18.7916C139.15 19.6381 138.533 20.3064 137.746 20.7965C136.974 21.2717 136.083 21.5093 135.073 21.5093C134.167 21.5093 133.343 21.3163 132.601 20.9302C131.873 20.5292 131.271 19.9871 130.796 19.304C129.875 20.7742 128.65 21.5093 127.121 21.5093C126.927 21.5093 126.772 21.4202 126.653 21.242C126.534 21.0638 126.475 20.8336 126.475 20.5515C126.475 19.9129 126.742 19.5936 127.276 19.5936ZM135.051 19.5936C136.001 19.5936 136.759 19.2594 137.323 18.5911C137.902 17.9229 138.192 17.0318 138.192 15.918C138.192 15.3685 138.11 14.8636 137.947 14.4032C137.056 14.3735 136.246 14.1953 135.519 13.8686C134.806 13.5418 134.242 13.0963 133.826 12.532C133.232 12.7845 132.764 13.2151 132.422 13.824C132.081 14.418 131.91 15.1309 131.91 15.9625C131.91 17.0467 132.192 17.9229 132.756 18.5911C133.336 19.2594 134.1 19.5936 135.051 19.5936Z" fill="#241E4C"/>
<path d="M147.456 21.5093C146.06 21.5093 145.05 20.997 144.426 19.9723C143.817 18.9327 143.513 17.507 143.513 15.6952V11.5073C142.815 12.3241 142.013 12.9478 141.107 13.3785C140.201 13.8092 139.355 14.0245 138.567 14.0245C138.285 14.0245 138.077 13.9354 137.944 13.7572C137.795 13.5641 137.721 13.3265 137.721 13.0443C137.721 12.5246 137.951 12.2424 138.412 12.1978C139.303 12.0939 140.134 11.8117 140.906 11.3513C141.679 10.8761 142.302 10.2598 142.778 9.50241C143.268 8.73016 143.513 7.86881 143.513 6.91835V4.95804C143.795 4.85408 144.137 4.8021 144.538 4.8021C144.894 4.8021 145.236 4.85408 145.562 4.95804V8.90095H148.881C148.985 9.13856 149.037 9.43558 149.037 9.792C149.037 10.1484 148.985 10.4454 148.881 10.6831H145.562V15.4502C145.562 16.8165 145.718 17.8486 146.03 18.5466C146.357 19.2446 146.884 19.5936 147.612 19.5936C148.042 19.5936 148.258 19.9203 148.258 20.5737C148.258 20.8559 148.183 21.0787 148.035 21.242C147.901 21.4202 147.708 21.5093 147.456 21.5093Z" fill="#241E4C"/>
<path d="M147.461 21.5093C147.268 21.5093 147.112 21.4202 146.993 21.242C146.874 21.0638 146.815 20.8336 146.815 20.5515C146.815 19.9129 147.082 19.5936 147.617 19.5936C148.047 19.5936 148.485 19.5267 148.931 19.3931C149.377 19.2446 149.896 18.9995 150.49 18.658C149.911 17.6481 149.622 16.46 149.622 15.0938C149.622 14.173 149.792 13.3636 150.134 12.6656C150.475 11.9528 150.951 11.3959 151.56 10.9949C152.168 10.5791 152.859 10.3712 153.631 10.3712C154.285 10.3712 154.864 10.5271 155.369 10.839C155.874 11.136 156.267 11.5518 156.549 12.0865C156.832 12.6211 156.973 13.2374 156.973 13.9354C156.973 14.8858 156.691 15.7546 156.126 16.5417C155.577 17.3288 154.641 18.1827 153.319 19.1035C153.795 19.4451 154.433 19.6159 155.235 19.6159C155.443 19.6159 155.606 19.705 155.725 19.8832C155.844 20.0614 155.903 20.299 155.903 20.596C155.903 20.8782 155.837 21.1009 155.703 21.2643C155.569 21.4277 155.376 21.5093 155.124 21.5093C154.411 21.5093 153.743 21.3905 153.119 21.1529C152.495 20.9153 151.975 20.5886 151.56 20.1728C150.134 21.0638 148.768 21.5093 147.461 21.5093ZM151.56 14.9156C151.56 16.0888 151.768 17.0244 152.183 17.7224C153.149 17.0541 153.861 16.4006 154.322 15.7621C154.797 15.1235 155.035 14.5146 155.035 13.9354C155.035 13.4008 154.901 12.9849 154.634 12.6879C154.381 12.3761 154.025 12.2201 153.564 12.2201C152.985 12.2201 152.503 12.48 152.117 12.9998C151.745 13.5196 151.56 14.1582 151.56 14.9156Z" fill="#241E4C"/>
<path d="M155.11 21.5093C154.917 21.5093 154.761 21.4202 154.642 21.242C154.523 21.0638 154.464 20.8336 154.464 20.5515C154.464 20.2544 154.546 20.0243 154.709 19.8609C154.858 19.6975 155.051 19.6159 155.288 19.6159C156.001 19.6159 156.625 19.4451 157.159 19.1035C157.679 18.7471 158.14 18.3016 158.541 17.7669C158.942 17.2174 159.291 16.668 159.588 16.1185L161.682 12.2201C161.592 11.8934 161.548 11.5444 161.548 11.1731C161.548 10.4306 161.682 9.8811 161.949 9.52468C162.231 9.16826 162.461 8.95292 162.639 8.87867C162.892 8.81927 163.159 8.82669 163.441 8.90095C163.738 8.96035 164.006 9.06431 164.243 9.21281C164.481 9.36132 164.644 9.53953 164.733 9.74745C164.689 10.0148 164.585 10.3712 164.422 10.8167C164.258 11.2622 164.035 11.7894 163.753 12.3983C163.857 12.532 163.976 12.6656 164.11 12.7993C164.258 12.933 164.429 13.074 164.622 13.2226L166.315 14.6037C166.924 15.0938 167.377 15.6061 167.674 16.1407C167.986 16.6605 168.142 17.2471 168.142 17.9006C168.142 18.5837 167.971 19.2 167.629 19.7495C167.288 20.299 166.813 20.7297 166.204 21.0415C165.595 21.3534 164.889 21.5093 164.087 21.5093C163.568 21.5093 163.048 21.4277 162.528 21.2643C162.008 21.1158 161.466 20.8708 160.902 20.5292C160.872 19.7421 161.169 19.1629 161.793 18.7916C162.61 19.3263 163.382 19.5936 164.11 19.5936C164.733 19.5936 165.231 19.4302 165.602 19.1035C165.973 18.7619 166.159 18.3313 166.159 17.8115C166.159 17.158 165.803 16.5491 165.09 15.9848L163.397 14.6482C163.189 14.4849 163.003 14.3215 162.84 14.1582C162.795 14.2324 162.751 14.3141 162.706 14.4032L160.902 17.6778C160.516 18.3758 160.063 19.0218 159.543 19.6159C159.023 20.195 158.4 20.6554 157.672 20.997C156.959 21.3386 156.105 21.5093 155.11 21.5093Z" fill="#241E4C"/>
<path d="M179.728 21.5094C177.714 21.5094 176.213 21.0091 175.226 20.0085C174.238 19.0079 173.744 17.5201 173.744 15.5449V7.55328H176.785V15.5644C176.785 16.6689 177.019 17.5071 177.487 18.0788C177.967 18.6506 178.715 18.9365 179.728 18.9365C180.716 18.9365 181.45 18.6506 181.931 18.0788C182.424 17.5071 182.671 16.6689 182.671 15.5644V7.55328H185.673V15.5449C185.673 17.5201 185.173 19.0079 184.172 20.0085C183.185 21.0091 181.703 21.5094 179.728 21.5094Z" fill="#9482FF"/>
<path d="M188.365 21.295V7.55328H194.778C196.324 7.55328 197.493 7.93012 198.286 8.6838C199.092 9.42449 199.495 10.4446 199.495 11.744C199.495 13.0305 199.092 14.057 198.286 14.8237C197.493 15.5774 196.324 15.9542 194.778 15.9542H191.406V21.295H188.365ZM191.406 13.5957H194.388C195.115 13.5957 195.655 13.4333 196.006 13.1084C196.369 12.7836 196.551 12.3288 196.551 11.744C196.551 11.1593 196.369 10.7109 196.006 10.3991C195.655 10.0742 195.115 9.91178 194.388 9.91178H191.406V13.5957Z" fill="#9482FF"/>
<path d="M206.488 21.5094C205.384 21.5094 204.351 21.3729 203.389 21.1001C202.428 20.8272 201.609 20.4503 200.933 19.9695L201.83 17.5915C202.272 17.8904 202.739 18.1438 203.233 18.3517C203.727 18.5596 204.247 18.7221 204.793 18.839C205.338 18.943 205.91 18.995 206.508 18.995C207.443 18.995 208.106 18.852 208.496 18.5661C208.899 18.2803 209.1 17.9164 209.1 17.4746C209.1 17.0718 208.964 16.7664 208.691 16.5585C208.431 16.3376 207.95 16.1492 207.249 15.9932L204.948 15.5254C203.688 15.2655 202.746 14.8237 202.122 14.2C201.498 13.5762 201.187 12.7446 201.187 11.705C201.187 10.8214 201.42 10.0547 201.888 9.405C202.356 8.75527 203.012 8.24848 203.857 7.88464C204.715 7.52079 205.715 7.33887 206.859 7.33887C207.833 7.33887 208.743 7.47531 209.588 7.74819C210.432 8.02108 211.127 8.41091 211.673 8.9177L210.777 11.1398C210.244 10.7109 209.646 10.3926 208.983 10.1847C208.334 9.96376 207.606 9.85331 206.8 9.85331C205.956 9.85331 205.306 10.0027 204.851 10.3016C204.409 10.6005 204.188 11.0098 204.188 11.5296C204.188 11.9194 204.325 12.2378 204.598 12.4847C204.871 12.7186 205.351 12.907 206.04 13.05L208.301 13.4983C209.588 13.7582 210.543 14.1935 211.166 14.8042C211.79 15.415 212.102 16.2271 212.102 17.2407C212.102 18.0983 211.868 18.8455 211.4 19.4822C210.945 20.119 210.296 20.6193 209.451 20.9831C208.619 21.334 207.632 21.5094 206.488 21.5094Z" fill="#9482FF"/>
<path d="M220.994 21.5094C219.526 21.5094 218.265 21.217 217.213 20.6323C216.16 20.0475 215.348 19.2289 214.776 18.1763C214.218 17.1107 213.938 15.8568 213.938 14.4144C213.938 12.972 214.218 11.7245 214.776 10.672C215.348 9.6194 216.16 8.80075 217.213 8.216C218.265 7.63124 219.526 7.33887 220.994 7.33887C221.943 7.33887 222.807 7.47531 223.587 7.74819C224.366 8.00808 225.029 8.39142 225.575 8.89821L224.62 11.2957C224.022 10.8279 223.45 10.4965 222.904 10.3016C222.372 10.1067 221.767 10.0092 221.092 10.0092C219.805 10.0092 218.818 10.3926 218.129 11.1593C217.453 11.9129 217.115 12.998 217.115 14.4144C217.115 15.8308 217.453 16.9223 218.129 17.689C218.818 18.4557 219.805 18.839 221.092 18.839C221.767 18.839 222.372 18.7416 222.904 18.5466C223.45 18.3517 224.022 18.0204 224.62 17.5526L225.575 19.95C225.029 20.4438 224.366 20.8272 223.587 21.1001C222.807 21.3729 221.943 21.5094 220.994 21.5094Z" fill="#9482FF"/>
</svg>
