<svg width="70" height="84" viewBox="0 0 70 84" fill="none" xmlns="http://www.w3.org/2000/svg">
<g clip-path="url(#clip0_1032_13023)">
<path d="M17.5673 23.0751C21.8545 23.0751 25.33 19.5996 25.33 15.3125C25.33 11.0253 21.8545 7.5498 17.5673 7.5498C13.2801 7.5498 9.80469 11.0253 9.80469 15.3125C9.80469 19.5996 13.2801 23.0751 17.5673 23.0751Z" fill="#3F3D56"/>
<path d="M62.1005 25.663C66.3877 25.663 69.8632 22.1875 69.8632 17.9003C69.8632 13.6132 66.3877 10.1377 62.1005 10.1377C57.8133 10.1377 54.3379 13.6132 54.3379 17.9003C54.3379 22.1875 57.8133 25.663 62.1005 25.663Z" fill="#3F3D56"/>
<path d="M62.2379 9.86523C60.7468 9.86525 59.2873 10.2947 58.0339 11.1023C56.7805 11.9099 55.7862 13.0613 55.1699 14.4191C56.4988 13.2354 58.1941 12.5443 59.9718 12.4616C61.7494 12.3789 63.5016 12.9096 64.9346 13.9648C66.3676 15.0201 67.3945 16.5357 67.8432 18.2578C68.2919 19.9799 68.1351 21.8039 67.3992 23.4242C68.5747 22.378 69.4044 20.9993 69.7783 19.4707C70.1522 17.9422 70.0526 16.3361 69.4928 14.8655C68.933 13.3948 67.9393 12.129 66.6437 11.236C65.348 10.343 63.8115 9.86497 62.2379 9.86523Z" fill="#614FCC"/>
<path d="M17.4326 7.27734C18.9236 7.27736 20.3831 7.70683 21.6365 8.5144C22.8899 9.32197 23.8842 10.4735 24.5005 11.8312C23.1717 10.6475 21.4764 9.95641 19.6987 9.87371C17.921 9.79102 16.1689 10.3217 14.7359 11.3769C13.3029 12.4322 12.276 13.9478 11.8273 15.6699C11.3786 17.392 11.5353 19.216 12.2712 20.8363C11.0958 19.7902 10.2661 18.4114 9.89219 16.8828C9.5183 15.3543 9.61786 13.7482 10.1777 12.2776C10.7375 10.8069 11.7311 9.54116 13.0268 8.64816C14.3225 7.75515 15.859 7.27708 17.4326 7.27734Z" fill="#614FCC"/>
<path d="M40.0384 53.9893C40.0417 57.9534 38.8689 61.8294 36.6686 65.1268C34.4683 68.4241 31.3393 70.9947 27.6776 72.5132C24.0158 74.0317 19.9859 74.4299 16.0978 73.6573C12.2098 72.8847 8.63821 70.9762 5.83516 68.1731C3.03212 65.3701 1.12356 61.7985 0.350992 57.9104C-0.421573 54.0223 -0.0234202 49.9925 1.49507 46.3307C3.01356 42.669 5.58415 39.54 8.88153 37.3397C12.1789 35.1393 16.0549 33.9666 20.019 33.9698C22.6505 33.9609 25.2577 34.4727 27.6906 35.4756C30.1235 36.4785 32.334 37.9528 34.1947 39.8135C36.0555 41.6743 37.5298 43.8848 38.5327 46.3177C39.5356 48.7506 40.0473 51.3578 40.0384 53.9893Z" fill="#3F3D56"/>
<path d="M40.0383 53.9892C40.0421 56.8549 39.4285 59.6879 38.2393 62.2952C34.8114 62.2493 31.4342 61.4607 28.3405 59.9838C25.2468 58.5068 22.5101 56.3766 20.3191 53.74C18.128 51.1034 16.5347 48.0231 15.6489 44.7113C14.7632 41.3995 14.606 37.9351 15.1883 34.5567C18.1387 33.8264 21.2167 33.7769 24.1891 34.412C27.1614 35.0471 29.9504 36.3502 32.3447 38.2225C34.739 40.0949 36.676 42.4874 38.0089 45.219C39.3418 47.9506 40.0358 50.9497 40.0383 53.9892Z" fill="#614FCC"/>
<path d="M38.5402 59.3012C51.6275 59.3012 62.2367 48.6919 62.2367 35.6047C62.2367 22.5175 51.6275 11.9082 38.5402 11.9082C25.453 11.9082 14.8438 22.5175 14.8438 35.6047C14.8438 48.6919 25.453 59.3012 38.5402 59.3012Z" fill="#3F3D56"/>
<path d="M44.2996 36.4143C45.5269 34.7665 47.3574 33.6725 49.39 33.372C51.4225 33.0716 53.4913 33.5892 55.1428 34.8114C56.0606 33.5793 56.5922 32.1025 56.6702 30.5681C56.7481 29.0336 56.369 27.5106 55.5809 26.1917C54.7927 24.8729 53.6309 23.8176 52.2426 23.1594C50.8543 22.5013 49.3019 22.2699 47.782 22.4946C46.2621 22.7193 44.8431 23.3899 43.7046 24.4216C42.5661 25.4532 41.7593 26.7995 41.3864 28.29C41.0135 29.7805 41.0913 31.3481 41.6099 32.7943C42.1285 34.2405 43.0645 35.5004 44.2996 36.4143Z" fill="white"/>
<path d="M26.1863 37.9133C27.4136 36.2655 29.2441 35.1715 31.2767 34.871C33.3092 34.5706 35.378 35.0882 37.0295 36.3104C37.9473 35.0783 38.4789 33.6015 38.5569 32.0671C38.6348 30.5327 38.2558 29.0096 37.4676 27.6908C36.6794 26.3719 35.5176 25.3166 34.1293 24.6585C32.741 24.0003 31.1886 23.7689 29.6688 23.9936C28.1489 24.2183 26.7298 24.8889 25.5913 25.9206C24.4528 26.9522 23.646 28.2985 23.2731 29.789C22.9002 31.2795 22.978 32.8471 23.4966 34.2933C24.0152 35.7396 24.9512 36.9994 26.1863 37.9133Z" fill="white"/>
<path d="M31.3228 33.0167C32.9023 33.0167 34.1827 31.7363 34.1827 30.1568C34.1827 28.5773 32.9023 27.2969 31.3228 27.2969C29.7433 27.2969 28.4629 28.5773 28.4629 30.1568C28.4629 31.7363 29.7433 33.0167 31.3228 33.0167Z" fill="#3F3D56"/>
<path d="M49.8443 30.838C51.4238 30.838 52.7042 29.5576 52.7042 27.9781C52.7042 26.3986 51.4238 25.1182 49.8443 25.1182C48.2648 25.1182 46.9844 26.3986 46.9844 27.9781C46.9844 29.5576 48.2648 30.838 49.8443 30.838Z" fill="#3F3D56"/>
<path d="M40.3106 37.919C41.1379 37.919 41.8086 37.2483 41.8086 36.4209C41.8086 35.5936 41.1379 34.9229 40.3106 34.9229C39.4832 34.9229 38.8125 35.5936 38.8125 36.4209C38.8125 37.2483 39.4832 37.919 40.3106 37.919Z" fill="#FF6584"/>
<path d="M17.8404 78.8258V72.2383H15.6614V78.8258C15.0242 79.0512 14.4725 79.4686 14.0823 80.0205C13.6921 80.5724 13.4825 81.2316 13.4824 81.9075L20.0194 81.9075C20.0193 81.2316 19.8097 80.5724 19.4195 80.0205C19.0293 79.4686 18.4776 79.0512 17.8404 78.8258Z" fill="#3F3D56"/>
<path d="M25.8756 78.8258V72.2383H23.6966V78.8258C23.0594 79.0512 22.5077 79.4686 22.1174 80.0205C21.7272 80.5724 21.5177 81.2316 21.5176 81.9075L28.0545 81.9075C28.0545 81.2316 27.8449 80.5724 27.4547 80.0205C27.0645 79.4686 26.5128 79.0512 25.8756 78.8258Z" fill="#3F3D56"/>
<path d="M28.8535 14.1802C27.8662 12.5906 27.203 10.7234 27.4085 8.86343C27.614 7.00349 28.8324 5.18858 30.6261 4.65556C32.4199 4.12255 34.6419 5.22681 34.9799 7.06728C36.7765 3.96101 39.6184 1.59417 42.9984 0.389146C44.5661 -0.163275 46.6495 -0.288547 47.556 1.10471C48.0046 1.79426 48.0526 2.73179 48.6536 3.29356C49.5957 4.17421 51.1065 3.55395 52.3939 3.62922C54.2044 3.73507 55.6619 5.42475 55.89 7.22393C56.118 9.02311 55.3212 10.8312 54.145 12.2116C52.9687 13.592 51.4387 14.6161 49.9295 15.6219" fill="#3F3D56"/>
<path d="M42.9153 41.9067C43.0128 41.8037 43.1135 41.7038 43.2187 41.6086C43.2652 41.5664 43.3125 41.5251 43.3605 41.4847C43.3905 41.4594 43.4207 41.4345 43.4513 41.4099C43.504 41.3674 43.5207 41.3571 43.4567 41.4046C43.6883 41.2313 43.9321 41.0752 44.1864 40.9374C44.3035 40.8746 44.4226 40.8157 44.5438 40.761C44.5723 40.7481 44.601 40.7357 44.6296 40.7229C44.5012 40.7801 44.6019 40.7347 44.6349 40.7215C44.7076 40.6923 44.7808 40.6645 44.8546 40.6382C45.1283 40.5405 45.4084 40.4618 45.693 40.4027C45.8241 40.3754 45.956 40.3543 46.0882 40.3332C46.1773 40.319 45.9762 40.3456 46.0659 40.3363C46.105 40.3322 46.1441 40.327 46.1833 40.323C46.2617 40.3148 46.3402 40.308 46.4189 40.3027C46.7021 40.2833 46.9862 40.2823 47.2695 40.2996C47.4111 40.3083 47.552 40.3227 47.6928 40.3393C47.5508 40.3225 47.7135 40.3432 47.7634 40.3514C47.841 40.3641 47.9183 40.3783 47.9954 40.3938C48.2722 40.4496 48.5448 40.5243 48.8115 40.6173C48.8779 40.6405 48.944 40.6649 49.0096 40.6905C49.046 40.7047 49.0822 40.7195 49.1184 40.7341C49.1001 40.7267 48.9991 40.6811 49.1014 40.7275C49.2296 40.7857 49.3566 40.8456 49.4808 40.9117C49.7355 41.0492 49.9799 41.205 50.2121 41.3778C50.2828 41.4297 50.1326 41.3119 50.1996 41.3687C50.2295 41.394 50.2607 41.418 50.2909 41.4432C50.3392 41.4837 50.3868 41.525 50.4336 41.5671C50.5534 41.6751 50.6683 41.7885 50.7789 41.9059C50.8799 42.0131 50.977 42.1238 51.0703 42.2379C51.069 42.2363 51.1754 42.3681 51.1188 42.297C51.0713 42.2374 51.1384 42.3231 51.1491 42.3374C51.2055 42.4129 51.2602 42.4895 51.3133 42.5674C51.4864 42.8219 51.6428 43.0873 51.7815 43.362C51.8474 43.492 51.9097 43.6238 51.9682 43.7573C51.9811 43.7866 52.0258 43.8949 51.9774 43.7771C51.9905 43.809 52.0036 43.8409 52.0164 43.8729C52.0485 43.9531 52.0795 44.0337 52.1092 44.1149C52.3238 44.7105 52.4883 45.3229 52.6011 45.9459C52.6308 46.1041 52.6579 46.2628 52.6826 46.4219C52.6936 46.4928 52.7042 46.5639 52.7143 46.635C52.714 46.6332 52.7377 46.8084 52.7254 46.7139C52.7145 46.6298 52.7333 46.7775 52.7352 46.7933C52.7765 47.1249 52.8092 47.4577 52.8356 47.7908C52.8875 48.4444 52.9152 49.0995 52.9351 49.7547C52.9855 51.4169 53.0286 53.0794 53.0752 54.7417L53.3608 64.9236L53.6464 75.1054L53.6818 76.3694C53.6818 76.5319 53.7464 76.6878 53.8613 76.8027C53.9762 76.9177 54.1321 76.9822 54.2946 76.9822C54.4572 76.9822 54.6131 76.9177 54.728 76.8027C54.8429 76.6878 54.9075 76.5319 54.9075 76.3694L54.614 65.9066L54.3225 55.5141L54.1758 50.2827C54.1365 48.882 54.0801 47.4827 53.8645 46.096C53.4675 43.5421 52.314 40.8871 49.8481 39.7275C47.5449 38.6444 44.6946 38.8956 42.6768 40.4705C42.4534 40.6443 42.2434 40.8347 42.0486 41.0401C41.9337 41.155 41.8691 41.3109 41.8691 41.4734C41.8691 41.6359 41.9337 41.7918 42.0486 41.9067C42.1636 42.0217 42.3194 42.0862 42.482 42.0862C42.6445 42.0862 42.8004 42.0217 42.9153 41.9067Z" fill="#614FCC"/>
<path d="M47.5286 61.207C47.3481 61.2072 47.175 61.2791 47.0473 61.4067C46.9197 61.5344 46.8479 61.7074 46.8477 61.888L48.2093 82.5795C48.2085 82.6695 48.2255 82.7589 48.2594 82.8423C48.2933 82.9258 48.3433 83.0018 48.4066 83.0659C48.4698 83.13 48.5452 83.1809 48.6282 83.2158C48.7113 83.2507 48.8004 83.2689 48.8905 83.2693H60.0578C60.2383 83.2691 60.4114 83.1973 60.539 83.0696C60.6667 82.942 60.7385 82.7689 60.7387 82.5884L62.1009 61.8791C62.0987 61.6999 62.0259 61.5289 61.8984 61.403C61.7708 61.2772 61.5988 61.2068 61.4196 61.207H47.5286Z" fill="#E6E6E6"/>
<path d="M48.6066 62.2285C48.5134 62.2285 48.4211 62.2477 48.3356 62.2848C48.2501 62.3219 48.1731 62.3762 48.1094 62.4443C48.0457 62.5125 47.9967 62.5929 47.9653 62.6807C47.934 62.7686 47.9211 62.8619 47.9273 62.9549L49.1794 81.6125C49.1914 81.7847 49.2682 81.9459 49.3942 82.0638C49.5202 82.1817 49.6862 82.2475 49.8588 82.248H59.0894C59.262 82.2475 59.428 82.1817 59.554 82.0638C59.6801 81.9459 59.7568 81.7847 59.7688 81.6125L61.0209 62.9549C61.0271 62.8619 61.0142 62.7686 60.9829 62.6807C60.9515 62.5929 60.9025 62.5125 60.8388 62.4443C60.7751 62.3762 60.6981 62.3219 60.6126 62.2848C60.5271 62.2477 60.4348 62.2285 60.3416 62.2285H48.6066Z" fill="#614FCC"/>
<path d="M52.704 65.4287C52.6318 65.4288 52.5626 65.4575 52.5115 65.5086C52.4605 65.5597 52.4317 65.6289 52.4316 65.7011V67.1991C52.4317 67.2713 52.4605 67.3406 52.5115 67.3916C52.5626 67.4427 52.6318 67.4714 52.704 67.4715H55.0192C55.0914 67.4714 55.1606 67.4427 55.2117 67.3916C55.2627 67.3406 55.2915 67.2713 55.2916 67.1991V65.7011C55.2915 65.6289 55.2627 65.5597 55.2117 65.5086C55.1606 65.4575 55.0914 65.4288 55.0192 65.4287H52.704Z" fill="#E6E6E6"/>
<path d="M55.2919 69.3789C55.2197 69.379 55.1505 69.4077 55.0994 69.4588C55.0484 69.5098 55.0196 69.5791 55.0195 69.6513V71.1493C55.0196 71.2215 55.0484 71.2908 55.0994 71.3418C55.1505 71.3929 55.2197 71.4216 55.2919 71.4217H57.6071C57.6793 71.4216 57.7485 71.3929 57.7996 71.3418C57.8506 71.2908 57.8794 71.2215 57.8795 71.1493V69.6513C57.8794 69.5791 57.8506 69.5098 57.7996 69.4588C57.7485 69.4077 57.6793 69.379 57.6071 69.3789H55.2919Z" fill="#E6E6E6"/>
<path d="M52.8407 72.6475C52.7685 72.6476 52.6993 72.6763 52.6482 72.7273C52.5972 72.7784 52.5685 72.8476 52.5684 72.9198V74.4179C52.5685 74.4901 52.5972 74.5593 52.6482 74.6104C52.6993 74.6614 52.7685 74.6902 52.8407 74.6903H55.1559C55.2281 74.6902 55.2973 74.6614 55.3484 74.6104C55.3995 74.5593 55.4282 74.4901 55.4283 74.4179V72.9198C55.4282 72.8476 55.3995 72.7784 55.3484 72.7273C55.2973 72.6763 55.2281 72.6476 55.1559 72.6475H52.8407Z" fill="#E6E6E6"/>
<path d="M8.85612 64.7698C9.56479 65.0048 10.0639 65.6078 10.4791 66.1987C10.9072 66.808 11.2995 67.4695 11.8845 67.9453C12.1302 68.1589 12.4184 68.3179 12.7302 68.4116C13.0419 68.5053 13.37 68.5317 13.6928 68.4889C14.3342 68.3923 14.8779 67.9439 14.9755 67.2825C15.1039 66.4116 14.4944 65.6055 13.9597 64.9859L13.8152 65.3346C14.6672 65.4265 15.4079 65.9122 16.1881 66.2248C16.9355 66.5244 17.8197 66.6878 18.5664 66.2973C19.1394 65.9977 19.4966 65.3982 19.6177 64.7769C19.7415 64.099 19.6379 63.3991 19.323 62.786C18.9255 61.9733 18.2737 61.3165 17.6414 60.684L17.4426 61.0254C18.3827 61.1665 19.4308 61.2981 20.2464 60.6941C20.5726 60.4642 20.8053 60.1246 20.9018 59.7374C20.9849 59.3094 20.9142 58.8659 20.702 58.485C20.2731 57.6498 19.4636 57.0609 18.7379 56.5007C17.0448 55.1917 15.2104 54.0766 13.2689 53.1763C13.032 53.0662 12.8243 53.4183 13.0627 53.5291C14.7259 54.3015 16.3116 55.2309 17.798 56.3048C18.5132 56.8219 19.2689 57.3551 19.8648 58.011C20.3707 58.5678 20.8315 59.4195 20.279 60.1079C19.6291 60.9176 18.453 60.7668 17.5513 60.6314C17.5081 60.621 17.4627 60.6247 17.4219 60.6421C17.381 60.6595 17.3469 60.6897 17.3246 60.728C17.3022 60.7664 17.2929 60.811 17.2979 60.8551C17.303 60.8992 17.3221 60.9405 17.3525 60.9729C18.2949 61.9157 19.4141 63.0475 19.2502 64.4985C19.188 65.0486 18.927 65.6105 18.4375 65.9014C17.7721 66.2968 16.9399 66.0933 16.2697 65.8199C15.456 65.4879 14.7063 65.0222 13.8152 64.9261C13.6232 64.9054 13.5676 65.1552 13.6708 65.2748C14.1031 65.7758 14.6217 66.4276 14.5833 67.13C14.5512 67.7177 14.0387 68.0694 13.4892 68.1026C12.0913 68.1871 11.3855 66.7317 10.6767 65.7773C10.2282 65.1733 9.69588 64.6183 8.96474 64.3758C8.71461 64.2929 8.60736 64.6873 8.85612 64.7698Z" fill="#614FCC"/>
</g>
<defs>
<clipPath id="clip0_1032_13023">
<rect width="70" height="83.2696" fill="white"/>
</clipPath>
</defs>
</svg>
