<svg width="24" height="24" viewBox="0 0 24 24" fill="none" xmlns="http://www.w3.org/2000/svg">
<g id="do-flash">
<path id="Vector" d="M9.13211 23.2515C9.00645 23.2516 8.88229 23.2242 8.76835 23.1712C8.65442 23.1182 8.55347 23.0409 8.47261 22.9447C8.39175 22.8485 8.33293 22.7358 8.30029 22.6145C8.26765 22.4931 8.26197 22.3661 8.28367 22.2423V22.2372L9.60133 15.0015H4.49992C4.35832 15.0015 4.21962 14.9614 4.09985 14.8859C3.98009 14.8103 3.88416 14.7024 3.82316 14.5746C3.76216 14.4468 3.73858 14.3044 3.75515 14.1638C3.77172 14.0231 3.82776 13.8901 3.91679 13.78L14.1904 1.07966C14.3073 0.931215 14.4697 0.82516 14.6526 0.777709C14.8355 0.730258 15.0289 0.744024 15.2033 0.816902C15.3776 0.889779 15.5233 1.01776 15.6181 1.18126C15.7128 1.34477 15.7514 1.53481 15.7279 1.72231C15.7279 1.73638 15.7241 1.74997 15.7218 1.76403L14.3995 9.00153H19.4999C19.6415 9.00155 19.7802 9.04165 19.9 9.1172C20.0197 9.19275 20.1157 9.30065 20.1767 9.42844C20.2377 9.55623 20.2613 9.69867 20.2447 9.8393C20.2281 9.97992 20.1721 10.113 20.083 10.2231L9.80805 22.9234C9.72731 23.0254 9.6246 23.1079 9.50757 23.1647C9.39054 23.2215 9.2622 23.2512 9.13211 23.2515Z" fill="#7963FF"/>
</g>
</svg>
