<svg width="38" height="31" viewBox="0 0 38 31" fill="none" xmlns="http://www.w3.org/2000/svg">
<g id="Vector">
<path d="M34.4196 1.39507C35.8651 1.39507 37.0369 2.56687 37.0369 4.01235V28.0247C37.0369 29.4702 35.8651 30.642 34.4196 30.642L3.43337 30.642C1.46105 30.642 0.197424 28.5432 1.12025 26.8001L10.1268 2.78775C10.5804 1.93095 11.4704 1.39507 12.4399 1.39507L34.4196 1.39507Z" fill="#8489EF"/>
<path d="M29.1851 0.0864263C29.9078 0.0864263 30.4937 0.672325 30.4937 1.39507V2.70371C30.4937 3.42645 29.9078 4.01235 29.1851 4.01235L17.4073 4.01235C16.6846 4.01235 16.0987 3.42645 16.0987 2.70371V1.39507C16.0987 0.672325 16.6846 0.0864257 17.4073 0.0864258L29.1851 0.0864263Z" fill="#232562"/>
</g>
</svg>
