<svg width="154" height="201" viewBox="0 0 154 201" fill="none" xmlns="http://www.w3.org/2000/svg">
<path d="M108.909 85.6447C108.909 86.7845 108.872 87.9149 108.798 89.0357C108.384 95.4999 106.751 101.827 103.985 107.685C103.964 107.735 103.938 107.781 103.917 107.828C103.788 108.099 103.656 108.371 103.52 108.639C102.698 110.295 101.785 111.906 100.787 113.463C96.2263 120.61 89.9754 126.524 82.5865 130.682C75.1977 134.84 66.8984 137.114 58.422 137.304L58.933 166.69L65.5972 163.181L66.7871 165.443L58.9831 169.552L59.9371 194.131L59.9478 194.86L54.7951 195.292L54.8058 195.274L56.428 137.307C49.6054 137.209 42.8701 135.757 36.6133 133.035C30.3565 130.312 24.7029 126.374 19.9806 121.449C19.6555 121.113 19.3338 120.766 19.0194 120.423C19.0051 120.409 18.9944 120.395 18.9836 120.384C15.0491 116.093 11.8671 111.169 9.57164 105.819C9.62172 105.877 9.67527 105.93 9.72535 105.987C4.53758 93.856 4.18574 80.2 8.7419 67.8176C13.2981 55.4352 22.4173 45.2641 34.2308 39.3885C34.4094 39.2992 34.5918 39.2134 34.7704 39.1241C46.4562 33.4954 59.8302 32.4626 72.2415 36.2304C84.6529 39.9983 95.1957 48.2917 101.78 59.4668C102.095 59.9957 102.398 60.5352 102.691 61.0784C106.782 68.6199 108.919 77.0654 108.909 85.6447Z" fill="#F2EFFF"/>
<path d="M70.8638 194.989C79.363 194.989 86.253 188.099 86.253 179.6C86.253 171.101 79.363 164.211 70.8638 164.211C62.3646 164.211 55.4746 171.101 55.4746 179.6C55.4746 188.099 62.3646 194.989 70.8638 194.989Z" fill="#493B99"/>
<path d="M89.0526 190.178H75.2656V194.853H89.0526V190.178Z" fill="#493B99"/>
<path d="M89.1505 194.854C89.9573 194.854 90.6115 193.109 90.6115 190.958C90.6115 188.806 89.9573 187.062 89.1505 187.062C88.3436 187.062 87.6895 188.806 87.6895 190.958C87.6895 193.109 88.3436 194.854 89.1505 194.854Z" fill="#493B99"/>
<path d="M85.8378 189.821H72.0508V194.496H85.8378V189.821Z" fill="#493B99"/>
<path d="M85.9337 194.496C86.7405 194.496 87.3947 192.752 87.3947 190.6C87.3947 188.448 86.7405 186.704 85.9337 186.704C85.1268 186.704 84.4727 188.448 84.4727 190.6C84.4727 192.752 85.1268 194.496 85.9337 194.496Z" fill="#493B99"/>
<path d="M55.9365 165.288C54.6939 159.723 58.666 154.1 64.8085 152.729C70.9509 151.357 76.9377 154.757 78.1803 160.322C79.4229 165.887 75.3521 167.939 69.2096 169.311C63.0672 170.682 57.1791 170.853 55.9365 165.288Z" fill="#AFA1FF"/>
<path d="M76.7797 178.723C75.9748 178.74 75.1852 178.503 74.5222 178.046C73.8593 177.589 73.3565 176.936 73.085 176.178C73.0701 176.134 73.064 176.087 73.0672 176.04C73.0705 175.993 73.0829 175.947 73.1038 175.905C73.1247 175.863 73.1536 175.826 73.189 175.795C73.2244 175.764 73.2655 175.74 73.31 175.726C73.3545 175.711 73.4015 175.705 73.4483 175.708C73.4951 175.711 73.5408 175.723 73.5828 175.744C73.6248 175.765 73.6623 175.794 73.6932 175.83C73.724 175.865 73.7476 175.906 73.7625 175.951C74.3035 177.561 76.156 178.404 77.8913 177.828C78.7529 177.547 79.4686 176.937 79.8825 176.131C80.0601 175.784 80.1668 175.405 80.1966 175.016C80.2264 174.628 80.1786 174.237 80.056 173.867C80.041 173.822 80.035 173.775 80.0382 173.728C80.0414 173.682 80.0538 173.636 80.0747 173.594C80.0956 173.552 80.1246 173.514 80.16 173.483C80.1953 173.453 80.2365 173.429 80.2809 173.414C80.3254 173.399 80.3724 173.393 80.4192 173.396C80.4661 173.4 80.5118 173.412 80.5538 173.433C80.5958 173.454 80.6333 173.483 80.6641 173.518C80.6949 173.553 80.7185 173.595 80.7334 173.639C80.8863 174.098 80.9463 174.583 80.91 175.066C80.8736 175.549 80.7417 176.019 80.5218 176.451C80.0226 177.426 79.1579 178.165 78.1162 178.506C77.6852 178.65 77.234 178.723 76.7797 178.723Z" fill="white"/>
<path d="M83.6343 180.815C84.0474 181.623 84.1227 182.561 83.8437 183.425C83.5647 184.288 82.9542 185.005 82.1465 185.418C81.3388 185.831 80.4001 185.906 79.5369 185.627C78.6737 185.348 77.9567 184.738 77.5437 183.93L77.5406 183.924C76.6821 182.241 77.8684 181.197 79.5511 180.338C81.2339 179.48 82.7759 179.132 83.6343 180.815Z" fill="white"/>
<path d="M138.56 195.128H2.41788C2.32311 195.128 2.23221 195.09 2.1652 195.023C2.09819 194.956 2.06055 194.865 2.06055 194.77C2.06055 194.676 2.09819 194.585 2.1652 194.518C2.23221 194.451 2.32311 194.413 2.41788 194.413H138.56C138.655 194.413 138.746 194.451 138.813 194.518C138.88 194.585 138.917 194.676 138.917 194.77C138.917 194.865 138.88 194.956 138.813 195.023C138.746 195.09 138.655 195.128 138.56 195.128Z" fill="#3F3D56"/>
<path d="M67.4218 199.973C68.8551 199.603 69.0625 195.602 67.885 191.037C66.7075 186.471 64.5911 183.069 63.1577 183.439C61.7244 183.809 61.517 187.81 62.6945 192.375C63.872 196.941 65.9885 200.343 67.4218 199.973Z" fill="#493B99"/>
<path d="M93.2621 161.254H87.407C87.3512 161.254 87.2968 161.238 87.2508 161.206C87.2048 161.174 87.1694 161.13 87.1494 161.078C87.1293 161.026 87.1254 160.969 87.1383 160.914C87.1512 160.86 87.1803 160.811 87.2216 160.774L92.5459 155.952H87.6266C87.5533 155.952 87.4831 155.923 87.4313 155.871C87.3796 155.819 87.3505 155.749 87.3505 155.676C87.3505 155.602 87.3796 155.532 87.4313 155.48C87.4831 155.429 87.5533 155.399 87.6266 155.399H93.2621C93.3178 155.399 93.3723 155.416 93.4183 155.448C93.4643 155.479 93.4997 155.524 93.5197 155.576C93.5398 155.628 93.5436 155.685 93.5307 155.739C93.5178 155.794 93.4888 155.843 93.4475 155.88L88.1232 160.702H93.2621C93.3353 160.702 93.4055 160.731 93.4573 160.783C93.5091 160.835 93.5382 160.905 93.5382 160.978C93.5382 161.052 93.5091 161.122 93.4573 161.174C93.4055 161.225 93.3353 161.254 93.2621 161.254Z" fill="#D7D0FF"/>
<path d="M100.717 152.695H94.8621C94.8063 152.695 94.7518 152.678 94.7058 152.646C94.6599 152.615 94.6245 152.57 94.6044 152.518C94.5844 152.466 94.5805 152.409 94.5934 152.355C94.6063 152.301 94.6354 152.252 94.6767 152.214L100.001 147.392H95.0817C95.0084 147.392 94.9382 147.363 94.8864 147.311C94.8346 147.259 94.8055 147.189 94.8055 147.116C94.8055 147.043 94.8346 146.972 94.8864 146.921C94.9382 146.869 95.0084 146.84 95.0817 146.84H100.717C100.773 146.84 100.827 146.857 100.873 146.888C100.919 146.92 100.955 146.965 100.975 147.017C100.995 147.069 100.999 147.126 100.986 147.18C100.973 147.234 100.944 147.283 100.903 147.321L95.5783 152.143H100.717C100.79 152.143 100.861 152.172 100.912 152.224C100.964 152.275 100.993 152.346 100.993 152.419C100.993 152.492 100.964 152.562 100.912 152.614C100.861 152.666 100.79 152.695 100.717 152.695Z" fill="#D7D0FF"/>
<path d="M97.4046 143.306H91.5496C91.4938 143.306 91.4394 143.289 91.3934 143.258C91.3474 143.226 91.312 143.181 91.2919 143.129C91.2719 143.077 91.268 143.02 91.2809 142.966C91.2938 142.912 91.3229 142.863 91.3642 142.825L96.6885 138.003H91.7692C91.6959 138.003 91.6257 137.974 91.5739 137.923C91.5221 137.871 91.493 137.801 91.493 137.727C91.493 137.654 91.5221 137.584 91.5739 137.532C91.6257 137.48 91.6959 137.451 91.7692 137.451H97.4046C97.4604 137.451 97.5149 137.468 97.5609 137.5C97.6069 137.531 97.6423 137.576 97.6623 137.628C97.6824 137.68 97.6862 137.737 97.6733 137.791C97.6604 137.845 97.6314 137.895 97.59 137.932L92.2658 142.754H97.4046C97.4779 142.754 97.5481 142.783 97.5999 142.835C97.6517 142.887 97.6808 142.957 97.6808 143.03C97.6808 143.103 97.6517 143.174 97.5999 143.225C97.5481 143.277 97.4779 143.306 97.4046 143.306Z" fill="#D7D0FF"/>
<path d="M101.832 103.708L106.404 100.051C102.852 99.6594 101.393 101.596 100.795 103.13C98.0207 101.977 95 103.487 95 103.487L104.148 106.808C103.686 105.576 102.883 104.5 101.832 103.708Z" fill="#3F3D56"/>
<path d="M36.8318 92.7079L41.4038 89.0512C37.852 88.6594 36.3927 90.5964 35.7954 92.1296C33.0207 90.9774 30 92.4874 30 92.4874L39.1476 95.8083C38.6862 94.5757 37.8828 93.5002 36.8318 92.7079Z" fill="#3F3D56"/>
<path d="M21.8318 59.7079L26.4038 56.0512C22.852 55.6594 21.3927 57.5964 20.7954 59.1296C18.0207 57.9774 15 59.4874 15 59.4874L24.1476 62.8083C23.6862 61.5757 22.8828 60.5002 21.8318 59.7079Z" fill="#3F3D56"/>
</svg>
