<svg width="25" height="24" viewBox="0 0 25 24" fill="none" xmlns="http://www.w3.org/2000/svg">
<path d="M19.6094 2.25H6.10938C5.31399 2.25087 4.55143 2.56722 3.98901 3.12964C3.42659 3.69206 3.11024 4.45462 3.10938 5.25V18.75C3.11024 19.5454 3.42659 20.3079 3.98901 20.8704C4.55143 21.4328 5.31399 21.7491 6.10938 21.75H19.6094C20.4048 21.7491 21.1673 21.4328 21.7297 20.8704C22.2922 20.3079 22.6085 19.5454 22.6094 18.75V5.25C22.6085 4.45462 22.2922 3.69206 21.7297 3.12964C21.1673 2.56722 20.4048 2.25087 19.6094 2.25ZM17.9336 8.73234L11.6336 16.2323C11.5645 16.3147 11.4785 16.3812 11.3814 16.4273C11.2844 16.4735 11.1786 16.4983 11.0711 16.5H11.0584C10.9533 16.5 10.8494 16.4778 10.7534 16.435C10.6573 16.3922 10.5714 16.3297 10.5011 16.2516L7.80109 13.2516C7.73252 13.1788 7.67918 13.0931 7.64421 12.9995C7.60923 12.9059 7.59333 12.8062 7.59742 12.7063C7.60152 12.6064 7.62555 12.5084 7.66808 12.4179C7.71061 12.3275 7.7708 12.2464 7.8451 12.1796C7.9194 12.1127 8.00631 12.0614 8.10074 12.0286C8.19516 11.9958 8.29519 11.9822 8.39494 11.9886C8.49469 11.995 8.59215 12.0213 8.68159 12.0659C8.77104 12.1106 8.85066 12.1726 8.91578 12.2484L11.0388 14.6072L16.7852 7.76766C16.9141 7.61863 17.0964 7.52631 17.2928 7.51066C17.4892 7.49501 17.6839 7.55728 17.8348 7.68402C17.9857 7.81075 18.0806 7.99176 18.0991 8.18793C18.1176 8.3841 18.0581 8.57966 17.9336 8.73234Z" fill="#8C9DBF"/>
</svg>
