<svg width="38" height="38" viewBox="0 0 38 38" fill="none" xmlns="http://www.w3.org/2000/svg">
<circle cx="19" cy="19" r="18" stroke="#ED6E00" stroke-width="2"/>
<path d="M17.5 13C15.1532 13 13.225 14.7972 13.0184 17.0898C12.972 17.6052 12.54 18 12.0225 18H9C8.44772 18 8 17.5523 8 17C8 16.4477 8.44772 16 9 16H11.1741C11.8516 13.1329 14.4263 11 17.5 11C20.9217 11 23.7258 13.6438 23.9811 17H25.5C27.9853 17 30 19.0147 30 21.5C30 23.9853 27.9853 26 25.5 26H21C20.4477 26 20 25.5523 20 25C20 24.4477 20.4477 24 21 24H25.5C26.8808 24 28 22.8807 28 21.5C28 20.1193 26.8808 19 25.5 19H23C22.4478 19 22 18.5523 22 18V17.5C22 15.0147 19.9853 13 17.5 13Z" fill="#ED6E00"/>
<path d="M8 21C8 20.4477 8.44772 20 9 20H20C20.5523 20 21 20.4477 21 21C21 21.5523 20.5523 22 20 22H9C8.44772 22 8 21.5523 8 21Z" fill="#ED6E00"/>
<path d="M9 24C8.44772 24 8 24.4477 8 25C8 25.5523 8.44772 26 9 26H16C16.5523 26 17 25.5523 17 25C17 24.4477 16.5523 24 16 24H9Z" fill="#ED6E00"/>
</svg>
