<svg width="18" height="18" viewBox="0 0 18 18" fill="none" xmlns="http://www.w3.org/2000/svg">
<g id="mdi:crown">
<path id="Vector" d="M4.16729 12C3.92564 12 3.71858 11.8272 3.67535 11.5894L2.51408 5.20246C2.42856 4.7321 2.98861 4.42146 3.34236 4.74305L5.91798 7.08453C6.15332 7.29847 6.52596 7.24122 6.68621 6.9665L8.56811 3.74038C8.76105 3.40963 9.23895 3.40963 9.43189 3.74038L11.3138 6.9665C11.474 7.24122 11.8467 7.29847 12.082 7.08453L14.6576 4.74305C15.0114 4.42146 15.5714 4.7321 15.4859 5.20246L14.3246 11.5894C14.2814 11.8272 14.0744 12 13.8327 12H4.16729ZM14.25 14.25C14.25 14.7 13.95 15 13.5 15H4.5C4.05 15 3.75 14.7 3.75 14.25V14C3.75 13.7239 3.97386 13.5 4.25 13.5H13.75C14.0261 13.5 14.25 13.7239 14.25 14V14.25Z" fill="#614FCC"/>
</g>
</svg>
