<svg width="24" height="25" viewBox="0 0 24 25" fill="none" xmlns="http://www.w3.org/2000/svg">
<path d="M12.0002 1.5C12.5525 1.5 13.0002 1.94772 13.0002 2.5V3.73381L13.9857 3.14251C14.4593 2.85836 15.0735 3.01192 15.3577 3.4855C15.6418 3.95908 15.4882 4.57334 15.0147 4.85749L13.0002 6.06619V10.768L17.0721 8.4171L17.1116 6.06815C17.1209 5.51594 17.5761 5.07582 18.1283 5.08511C18.6805 5.0944 19.1206 5.54958 19.1113 6.10179L19.092 7.25091L20.1605 6.63401C20.6387 6.35787 21.2503 6.52175 21.5265 7.00004C21.8026 7.47833 21.6387 8.08992 21.1605 8.36607L20.092 8.98296L21.0968 9.54078C21.5797 9.80884 21.7538 10.4176 21.4857 10.9005C21.2177 11.3833 20.6089 11.5575 20.1261 11.2894L18.0721 10.1491L14.0003 12.5L18.0722 14.8509L20.1262 13.7107C20.609 13.4426 21.2178 13.6167 21.4858 14.0996C21.7539 14.5825 21.5798 15.1912 21.0969 15.4593L20.0921 16.0171L21.1605 16.634C21.6388 16.9101 21.8027 17.5217 21.5266 18C21.2504 18.4783 20.6388 18.6422 20.1605 18.366L19.0921 17.7492L19.1114 18.8983C19.1207 19.4505 18.6806 19.9057 18.1283 19.915C17.5761 19.9242 17.121 19.4841 17.1117 18.9319L17.0722 16.583L13.0002 14.232V18.9338L15.0147 20.1425C15.4882 20.4267 15.6418 21.0409 15.3577 21.5145C15.0735 21.9881 14.4593 22.1416 13.9857 21.8575L13.0002 21.2662V22.5C13.0002 23.0523 12.5525 23.5 12.0002 23.5C11.4479 23.5 11.0002 23.0523 11.0002 22.5V21.2662L10.0147 21.8575C9.54112 22.1416 8.92686 21.9881 8.64272 21.5145C8.35857 21.0409 8.51213 20.4267 8.98571 20.1425L11.0002 18.9338V14.2321L6.92842 16.583L6.8889 18.9319C6.87961 19.4841 6.42443 19.9242 5.87222 19.915C5.32002 19.9057 4.8799 19.4505 4.88919 18.8983L4.90852 17.7492L3.84001 18.3661C3.36171 18.6422 2.75012 18.4783 2.47398 18C2.19784 17.5217 2.36171 16.9101 2.84001 16.634L3.90852 16.0171L2.90368 15.4593C2.42081 15.1912 2.24667 14.5825 2.51473 14.0996C2.78279 13.6167 3.39154 13.4426 3.87441 13.7107L5.92842 14.8509L10.0003 12.5L5.92851 10.1491L3.8745 11.2894C3.39163 11.5575 2.78288 11.3833 2.51482 10.9005C2.24676 10.4176 2.4209 9.80884 2.90377 9.54078L3.90861 8.98296L2.8401 8.36606C2.3618 8.08991 2.19793 7.47832 2.47407 7.00003C2.75021 6.52174 3.3618 6.35786 3.8401 6.63401L4.90861 7.25091L4.88928 6.10179C4.87999 5.54958 5.32011 5.0944 5.87231 5.08511C6.42452 5.07582 6.8797 5.51594 6.88899 6.06815L6.92851 8.4171L11.0002 10.7679V6.06619L8.98571 4.85749C8.51213 4.57334 8.35857 3.95908 8.64272 3.4855C8.92686 3.01192 9.54112 2.85836 10.0147 3.14251L11.0002 3.73381V2.5C11.0002 1.94772 11.4479 1.5 12.0002 1.5Z" fill="#614FCC"/>
</svg>
